<svg width="50" height="74" viewBox="0 0 50 74" fill="none" xmlns="http://www.w3.org/2000/svg">
<path d="M24.64 0C11.0567 0 0 11.0567 0 24.64C0 46.3745 22.5285 72.2958 23.485 73.3906C23.7798 73.7275 24.1948 73.92 24.64 73.92C25.1152 73.8899 25.5002 73.7275 25.795 73.3906C26.7515 72.2777 49.28 45.9112 49.28 24.64C49.28 11.0567 38.2233 0 24.64 0Z" fill="#50CFF6"/>
<path d="M13 18V20H15V18H13ZM17 18V28H31V18H17ZM33 18V20H35V18H33ZM19 20H29V26H19V20ZM13 22V24H15V22H13ZM33 22V24H35V22H33ZM13 26V28H15V26H13ZM33 26V28H35V26H33ZM13 31V33H17V41H31V33H35V31H13ZM19 33H20.8438C21.4023 34.1875 22.6016 35 24 35C25.3984 35 26.5977 34.1875 27.1562 33H29V37.1875C28.1562 37.4883 27.4883 38.1562 27.1875 39H20.8125C20.5117 38.1562 19.8438 37.4883 19 37.1875V33ZM24 36C23.1719 36 22.5 36.4492 22.5 37C22.5 37.5508 23.1719 38 24 38C24.8281 38 25.5 37.5508 25.5 37C25.5 36.4492 24.8281 36 24 36Z" fill="white"/>
</svg>
