<svg id="Layer_1" data-name="Layer 1" xmlns="http://www.w3.org/2000/svg" viewBox="0 0 50 74"><defs><style>.cls-1{fill:#94C22B;}.cls-2{fill:#fff;}</style></defs><path class="cls-1" d="M24.64,0A24.68,24.68,0,0,0,0,24.64C0,46.37,22.53,72.3,23.49,73.39a1.49,1.49,0,0,0,1.15.53,1.59,1.59,0,0,0,1.16-.53c.95-1.11,23.48-27.48,23.48-48.75A24.68,24.68,0,0,0,24.64,0Z"/><path class="cls-2" d="M25,13l-.25.06-11,3-.75.22V37H24V33h2v4H37V16.25L36.25,16l-11-3ZM25,15l10,2.72V35H28V31H22v4H15V17.75Zm-7,4v2h2V19Zm4,0v2h2V19Zm4,0v2h2V19Zm4,0v2h2V19ZM18,23v2h2V23Zm4,0v2h2V23Zm4,0v2h2V23Zm4,0v2h2V23ZM18,27v2h2V27Zm4,0v2h2V27Zm4,0v2h2V27Zm4,0v2h2V27ZM18,31v2h2V31Zm12,0v2h2V31Z"/></svg>