<svg width="50" height="74" viewBox="0 0 50 74" fill="none" xmlns="http://www.w3.org/2000/svg">
<path d="M24.64 0C11.0567 0 0 11.0567 0 24.64C0 46.3745 22.5285 72.2958 23.485 73.3906C23.7798 73.7275 24.1948 73.92 24.64 73.92C25.1152 73.8899 25.5002 73.7275 25.795 73.3906C26.7515 72.2777 49.28 45.9112 49.28 24.64C49.28 11.0567 38.2233 0 24.64 0Z" fill="#FF7152"/>
<path d="M13 18V31H17V37C17 38.6445 18.3555 40 20 40H26C27.6445 40 29 38.6445 29 37V31H33V18H31V29H15V18H13ZM34 18V29H36V18H34ZM18 20V22H20V20H18ZM22 20V22H24V20H22ZM26 20V22H28V20H26ZM18 24V26H20V24H18ZM22 24V26H24V24H22ZM26 24V26H28V24H26ZM19 31H23V38H20C19.4336 38 19 37.5664 19 37V31ZM25 31H27V37C27 37.5664 26.5664 38 26 38H25V31Z" fill="white"/>
</svg>
