<svg width="48" height="46" viewBox="0 0 48 46" fill="none" xmlns="http://www.w3.org/2000/svg">
<path fill-rule="evenodd" clip-rule="evenodd" d="M24 0C10.767 0 0 10.3178 0 23C0 35.6822 10.767 46 24 46C28.155 46 32.2035 44.9757 35.7945 43.0253L44.0505 45.8421C44.361 45.9479 44.682 46 45 46C45.783 46 46.5495 45.6857 47.121 45.1015C47.925 44.2796 48.2055 43.0652 47.8455 41.9627L45.183 33.81C47.0295 30.4888 48 26.7812 48 23C48 10.3178 37.233 0 24 0ZM24 3.06667C35.595 3.06667 45 11.9907 45 23C45 26.818 43.86 30.3907 41.895 33.4267L45 42.9333L35.475 39.6827C32.175 41.7373 28.23 42.9333 24 42.9333C12.405 42.9333 3 34.0093 3 23C3 11.9907 12.405 3.06667 24 3.06667Z" fill="url(#paint0_linear)"/>
<defs>
<linearGradient id="paint0_linear" x1="24" y1="0" x2="24" y2="46" gradientUnits="userSpaceOnUse">
<stop stop-color="#95C32D"/>
<stop offset="1" stop-color="#C3E96B"/>
</linearGradient>
</defs>
</svg>
