<svg id="Layer_1" data-name="Layer 1" xmlns="http://www.w3.org/2000/svg" xmlns:xlink="http://www.w3.org/1999/xlink" viewBox="0 0 61 62"><defs><style>.cls-1{fill:none;}.cls-2{clip-path:url(#clip-path);}.cls-3{fill:url(#linear-gradient);}.cls-4{fill:url(#linear-gradient-2);}</style><clipPath id="clip-path"><rect class="cls-1" y="0.5" width="61" height="61"/></clipPath><linearGradient id="linear-gradient" x1="42.82" y1="56.31" x2="12.86" y2="-18.13" gradientUnits="userSpaceOnUse"><stop offset="0" stop-color="#8fc418"/><stop offset="1" stop-color="#dbfc8f"/></linearGradient><linearGradient id="linear-gradient-2" x1="34" y1="30.8" x2="24.68" y2="7.65" xlink:href="#linear-gradient"/></defs><g class="cls-2"><path class="cls-3" d="M53.48,3.6h-46A7.53,7.53,0,0,0,0,11.13V40.27A7.54,7.54,0,0,0,7.52,47.8H28.79V55H18.19a1.71,1.71,0,0,0,0,3.42H42.81a1.71,1.71,0,0,0,0-3.42H32.21V47.8H53.48A7.53,7.53,0,0,0,61,40.27V11.13A7.53,7.53,0,0,0,53.48,3.6Zm4.1,36.67a4.11,4.11,0,0,1-4.1,4.11h-46a4.11,4.11,0,0,1-4.1-4.11V38.9H57.58Zm0-4.79H3.42V11.13A4.11,4.11,0,0,1,7.52,7h46a4.11,4.11,0,0,1,4.1,4.11Z"/><path class="cls-4" d="M42,16.83h0a2.75,2.75,0,0,0-.22-.26l-.42.42h0l.42-.42a1.67,1.67,0,0,0-.58-.38l-.07,0h0l-10.8-4.35a1.78,1.78,0,0,0-2.31,1,1.79,1.79,0,0,0,1,2.3l6.87,2.76L19.71,24.63l.23.55h0l-.23-.55h0a1.74,1.74,0,0,0-.95,1,1.77,1.77,0,0,0,1,2.31,1.8,1.8,0,0,0,1.35,0h0L37.33,21.1,34.54,28a1.78,1.78,0,0,0,0,1.36,1.8,1.8,0,0,0,1,1,1.78,1.78,0,0,0,1.36,0,1.74,1.74,0,0,0,.94-1L42.2,18.49a1.76,1.76,0,0,0,0-1.35A3.07,3.07,0,0,0,42,16.83Zm-.5.34Z"/></g></svg>