<svg id="Layer_1" data-name="Layer 1" xmlns="http://www.w3.org/2000/svg" viewBox="0 0 54.85 50.17"><defs><style>.cls-1{fill:none;}</style></defs><path class="cls-1" d="M40.72,27.83a13.3,13.3,0,1,0-18.8,12.06A1.85,1.85,0,0,1,23,41.58v4.88h8.81V41.64A1.85,1.85,0,0,1,32.91,40,13.41,13.41,0,0,0,40.72,27.83Z"/><path d="M27.42,10.82a17,17,0,0,0-17,17,16.85,16.85,0,0,0,8.89,14.91v5.57a1.85,1.85,0,0,0,1.85,1.86H33.69a1.85,1.85,0,0,0,1.85-1.86V42.78a17,17,0,0,0-8.12-32Zm4.41,30.82v4.82H23V41.58a1.85,1.85,0,0,0-1.1-1.69,13.28,13.28,0,1,1,18.8-12.06A13.41,13.41,0,0,1,32.91,40,1.85,1.85,0,0,0,31.83,41.64Z"/><path d="M27.42,7.51a1.86,1.86,0,0,0,1.86-1.85V1.86a1.86,1.86,0,1,0-3.71,0v3.8A1.85,1.85,0,0,0,27.42,7.51Z"/><path d="M5.66,25.57H1.85a1.86,1.86,0,0,0,0,3.71H5.66a1.86,1.86,0,0,0,0-3.71Z"/><path d="M53,25.57h-3.8a1.86,1.86,0,1,0,0,3.71H53a1.86,1.86,0,1,0,0-3.71Z"/><path d="M12.07,13.88a1.85,1.85,0,0,0,1.31-3.17L10.67,8a1.85,1.85,0,0,0-1.31-.54h0A1.87,1.87,0,0,0,8,8.05a1.78,1.78,0,0,0-.53,1.31,1.84,1.84,0,0,0,.55,1.31l2.71,2.68A1.82,1.82,0,0,0,12.07,13.88Z"/><path d="M46.8,8.05a1.8,1.8,0,0,0-1.31-.55h0a1.86,1.86,0,0,0-1.3.53l-2.71,2.68a1.87,1.87,0,0,0,0,2.63,1.9,1.9,0,0,0,1.31.55h0a1.85,1.85,0,0,0,1.31-.54l2.71-2.68a1.88,1.88,0,0,0,.55-1.31A1.85,1.85,0,0,0,46.8,8.05Z"/></svg>