<svg width="60" height="41" viewBox="0 0 60 41" fill="none" xmlns="http://www.w3.org/2000/svg">
<path d="M40.265 0.765076C38.4901 0.765076 36.7698 1.00191 35.1326 1.44336C33.4952 1.00191 31.7749 0.765076 30.0001 0.765076C28.2253 0.765076 26.5049 1.00191 24.8677 1.44336C23.2303 1.00191 21.51 0.765076 19.7352 0.765076C8.85305 0.765076 0 9.61812 0 20.5C0 31.382 8.85305 40.235 19.735 40.235C21.5099 40.235 23.2302 39.9982 24.8674 39.5567C26.5048 39.9982 28.2251 40.235 29.9999 40.235C31.7747 40.235 33.4951 39.9982 35.1323 39.5567C36.7697 39.9982 38.49 40.235 40.2648 40.235C51.1469 40.235 60 31.382 60 20.5C60 9.61812 51.147 0.765076 40.265 0.765076ZM19.7351 36.7194C10.7917 36.7194 3.51562 29.4434 3.51562 20.5C3.51562 11.5566 10.7916 4.2807 19.735 4.2807C28.6784 4.2807 35.9544 11.5566 35.9544 20.5C35.9544 29.4434 28.6785 36.7194 19.7351 36.7194ZM31.0109 36.687C36.1206 33.1168 39.47 27.1926 39.47 20.5C39.47 13.8075 36.1206 7.88328 31.0109 4.31304C39.4852 4.83676 46.2195 11.8961 46.2195 20.5C46.2195 29.1039 39.4852 36.1632 31.0109 36.687ZM41.2758 36.687C46.3856 33.1168 49.735 27.1926 49.735 20.5C49.735 13.8075 46.3855 7.88328 41.2758 4.31304C49.7501 4.83687 56.4844 11.8961 56.4844 20.5C56.4844 29.1039 49.7501 36.1632 41.2758 36.687Z" fill="url(#paint0_linear)"/>
<path d="M15.676 28.3516V26.0334H13.9453V23.932H15.676V22.2421H13.9453V19.5556H15.676V12.8828H20.6085C22.5989 12.8828 24.0483 13.2873 24.9569 14.0961C25.88 14.9049 26.3415 16.017 26.3415 17.4325C26.3415 18.2702 26.154 19.0573 25.779 19.794C25.404 20.5306 24.7767 21.1227 23.8969 21.5705C23.0315 22.0182 21.8489 22.2421 20.3489 22.2421H18.9427V23.932H22.2743V26.0334H18.9427V28.3516H15.676ZM18.9427 19.5556H20.0244C20.9475 19.5556 21.6758 19.3968 22.2094 19.079C22.7575 18.7613 23.0315 18.2485 23.0315 17.5408C23.0315 16.2265 22.1662 15.5693 20.4355 15.5693H18.9427V19.5556Z" fill="url(#paint1_linear)"/>
<defs>
<linearGradient id="paint0_linear" x1="30" y1="0.765076" x2="30" y2="40.235" gradientUnits="userSpaceOnUse">
<stop stop-color="#8FC418"/>
<stop offset="1" stop-color="#DBFC8F"/>
</linearGradient>
<linearGradient id="paint1_linear" x1="20.2191" y1="9.70836" x2="20.2191" y2="35.7063" gradientUnits="userSpaceOnUse">
<stop stop-color="#94C22B"/>
<stop offset="1" stop-color="#C5EB6F"/>
</linearGradient>
</defs>
</svg>
