<svg id="Layer_1" data-name="Layer 1" xmlns="http://www.w3.org/2000/svg" viewBox="0 0 50.24 49.95"><path d="M39.35,11.11a3,3,0,0,0-1-.64,3,3,0,0,0-3.88,1.61,3,3,0,0,0,.64,3.25,3,3,0,0,0,1.52.82A3.06,3.06,0,0,0,38.38,16a3,3,0,0,0,1.34-1.1,3.05,3.05,0,0,0,.5-1.66,3,3,0,0,0-.87-2.11Z"/><path d="M49.47,2.13A1.92,1.92,0,0,0,48.1.76a23.58,23.58,0,0,0-24,7.62l-2.44,2.9L16.06,9.92a5.69,5.69,0,0,0-6.94,2.77L4.46,21a2,2,0,0,0-.25.85,2,2,0,0,0,.17.87,1.87,1.87,0,0,0,1.35,1.09l6.72,1.45-.07.21a28.13,28.13,0,0,0-1.17,5.12,1.94,1.94,0,0,0,.55,1.61l6.56,6.58a2.16,2.16,0,0,0,.62.41,1.82,1.82,0,0,0,.9.14,25.76,25.76,0,0,0,5.23-1l.21-.07,0,.22,1.36,6.37a2,2,0,0,0,.38.8,2,2,0,0,0,.71.55,2,2,0,0,0,.87.16,2,2,0,0,0,.86-.24l8.21-4.64v0h.07a6.16,6.16,0,0,0,2.49-2.92,6.23,6.23,0,0,0,.31-3.86l-1.45-6,.09-.08,2.62-2.42a23.56,23.56,0,0,0,7.62-24ZM14,21.63,9.08,20.58l.13-.23L12.5,14.5a1.94,1.94,0,0,1,1.09-.94,1.91,1.91,0,0,1,1.43,0l3.92,1-1.58,1.89a27.2,27.2,0,0,0-3.34,5ZM36.78,36.91a2.44,2.44,0,0,1-.89,1.14h0l-6,3.38-1-4.67L29,36.7a23.41,23.41,0,0,0,5-3.37v-.06h.07l1.79-1.65L36,32l.85,3.53A2.41,2.41,0,0,1,36.78,36.91Zm8.48-22.18a19.76,19.76,0,0,1-5.93,8.53l-7.8,7.18a20.84,20.84,0,0,1-11,4.94h-.1l-.07-.07-5.16-5.17,0-.1a23.5,23.5,0,0,1,5.12-11.14l3.56-4.22L24,14.5l3.06-3.64A19.82,19.82,0,0,1,45.89,4.19l.13,0,0,.13A19.82,19.82,0,0,1,45.26,14.73Z"/><path d="M10.19,34A1.74,1.74,0,0,0,9,33.53,1.78,1.78,0,0,0,7.7,34L.51,41.23a1.77,1.77,0,0,0,0,2.49,1.77,1.77,0,0,0,2.49,0l7.19-7.19a1.75,1.75,0,0,0,.52-1.24A1.77,1.77,0,0,0,10.19,34Z"/><path d="M14.23,39.24a1.71,1.71,0,0,0-1.24.52L5.8,47a1.76,1.76,0,0,0,2.49,2.48l7.19-7.19a1.76,1.76,0,0,0-1.25-3Z"/></svg>