<svg width="40" height="40" viewBox="0 0 40 40" fill="none" xmlns="http://www.w3.org/2000/svg">
<rect width="40" height="40" rx="8" fill="#4D7198"/>
<path d="M29.1021 22.9429C30.9701 24.6461 31.3557 25.4623 31.416 25.5687C32.1873 26.8225 30.5724 26.9172 30.5724 26.9172L27.4631 26.9645C27.4631 26.9645 26.7882 27.0946 25.9205 26.5032C24.7515 25.7225 23.6307 23.6762 22.7992 23.9483C21.9435 24.2203 21.9676 26.0537 21.9676 26.0537C21.9676 26.0537 21.9676 26.3139 21.7748 26.515C21.5579 26.7397 21.1361 26.6569 21.1361 26.6569H19.7502C19.7502 26.6569 16.6771 26.9645 13.9896 24.2085C11.037 21.2041 8.43389 15.29 8.43389 15.29C8.43389 15.29 8.28928 14.9351 8.44595 14.734C8.62672 14.5448 9.13288 14.5448 9.13288 14.5448H12.4591C12.4591 14.5448 12.7845 14.5448 12.9893 14.734C13.1701 14.8641 13.2786 15.1362 13.2786 15.1362C13.2786 15.1362 13.8088 16.4491 14.5319 17.6556C15.9178 20.0094 16.5566 20.5181 17.0025 20.2697C17.7255 19.903 17.5207 16.9459 17.5207 16.9459C17.5207 16.9459 17.5327 15.8696 17.1712 15.3964C16.894 15.0297 16.3637 14.9115 16.1348 14.8878C15.9419 14.8641 16.2553 14.4383 16.653 14.2372C17.2555 13.9534 18.304 13.9534 19.5574 13.9534C20.5335 13.9534 20.8107 14.0243 21.1843 14.1071C22.3412 14.3792 21.9435 15.4319 21.9435 17.9395C21.9435 18.7557 21.823 19.8675 22.3894 20.2578C22.6425 20.4234 23.2692 20.2815 24.8359 17.6911C25.559 16.461 26.1133 15.0061 26.1133 15.0061C26.1133 15.0061 26.2339 14.7577 26.4146 14.6394C26.6074 14.5448 26.8726 14.5448 26.8726 14.5448H30.3675C30.3675 14.5448 31.428 14.4265 31.5967 14.8878C31.7775 15.3728 31.199 16.5201 29.7649 18.3771C27.4269 21.4525 27.1618 21.1686 29.1021 22.9429Z" fill="white"/>
</svg>
