<svg id="Layer_1" data-name="Layer 1" xmlns="http://www.w3.org/2000/svg" viewBox="0 0 50 74"><defs><style>.cls-1{fill:#94c22b;}.cls-2{fill:#fff;}</style></defs><path class="cls-1" d="M24.64,0A24.68,24.68,0,0,0,0,24.64C0,46.37,22.53,72.3,23.49,73.39a1.49,1.49,0,0,0,1.15.53,1.59,1.59,0,0,0,1.16-.53c.95-1.11,23.48-27.48,23.48-48.75A24.68,24.68,0,0,0,24.64,0Z"/><path class="cls-2" d="M13.14,17.46v2h2v-2Zm4,0v10h14v-10Zm16,0v2h2v-2Zm-14,2h10v6h-10Zm-6,2v2h2v-2Zm20,0v2h2v-2Zm-20,4v2h2v-2Zm20,0v2h2v-2Zm-20,5v2h4v8h14v-8h4v-2Zm6,2H21a3.5,3.5,0,0,0,6.32,0h1.84v4.19a3,3,0,0,0-1.81,1.81H21a3,3,0,0,0-1.81-1.81Zm5,3c-.83,0-1.5.45-1.5,1s.67,1,1.5,1,1.5-.45,1.5-1S25,35.46,24.14,35.46Z"/></svg>