<svg width="32" height="32" viewBox="0 0 32 32" fill="none" xmlns="http://www.w3.org/2000/svg">
<path d="M6.625 0.375C3.19531 0.375 0.375 3.19531 0.375 6.625C0.375 10.0547 3.19531 12.875 6.625 12.875C10.0547 12.875 12.875 10.0547 12.875 6.625C12.875 3.19531 10.0547 0.375 6.625 0.375ZM29.3438 0.449219L0.449219 29.3438L2.64453 31.5625L31.5625 2.64453L29.3438 0.449219ZM6.625 3.5C8.37109 3.5 9.75 4.87891 9.75 6.625C9.75 8.37109 8.37109 9.75 6.625 9.75C4.87891 9.75 3.5 8.37109 3.5 6.625C3.5 4.87891 4.87891 3.5 6.625 3.5ZM25.375 19.125C21.9453 19.125 19.125 21.9453 19.125 25.375C19.125 28.8047 21.9453 31.625 25.375 31.625C28.8047 31.625 31.625 28.8047 31.625 25.375C31.625 21.9453 28.8047 19.125 25.375 19.125ZM25.375 22.25C27.1211 22.25 28.5 23.6289 28.5 25.375C28.5 27.1211 27.1211 28.5 25.375 28.5C23.6289 28.5 22.25 27.1211 22.25 25.375C22.25 23.6289 23.6289 22.25 25.375 22.25Z" fill="#94C22B"/>
</svg>
