<svg id="Layer_1" data-name="Layer 1" xmlns="http://www.w3.org/2000/svg" xmlns:xlink="http://www.w3.org/1999/xlink" viewBox="0 0 61.06 59.27"><defs><linearGradient id="linear-gradient" x1="2" y1="34.94" x2="2" y2="2.73" gradientTransform="matrix(1, 0, 0, -1, 0, 60)" gradientUnits="userSpaceOnUse"><stop offset="0" stop-color="#92c61c"/><stop offset="1" stop-color="#c8ed73"/></linearGradient><clipPath id="clip-path"><path d="M25.52,0A6.56,6.56,0,0,0,19.4,4.14L13,20.15a3.74,3.74,0,0,0-.25,1.33V53.69a3.58,3.58,0,0,0,3.58,3.58H43.54a7.15,7.15,0,0,0,7.11-6.37l2.09-18.69H53.9A7.18,7.18,0,0,0,61,24.44,7.3,7.3,0,0,0,53.7,17.9H31L32.08,7.25A6.61,6.61,0,0,0,25.52,0Zm0,3.58a3,3,0,0,1,3,3.31L27.06,21.48H53.7a3.71,3.71,0,0,1,3.77,3.26,3.6,3.6,0,0,1-3.57,3.89H49.53L47.1,50.51a3.59,3.59,0,0,1-3.56,3.18H16.32V21.48l6.4-16A3,3,0,0,1,25.52,3.58Z" fill="none" clip-rule="evenodd"/></clipPath></defs><title>Artboard 1</title><path d="M2,59.27a2,2,0,0,1-2-2V25.06a2,2,0,0,1,4,0V57.27A2,2,0,0,1,2,59.27Z" fill="url(#linear-gradient)"/><g clip-path="url(#clip-path)"><rect x="16.32" y="3.58" width="41.24" height="0.63" fill="#97c42f"/><rect x="16.32" y="4.21" width="41.24" height="0.84" fill="#98c530"/><rect x="16.32" y="5.05" width="41.24" height="0.84" fill="#98c631"/><rect x="16.32" y="5.9" width="41.24" height="0.84" fill="#99c632"/><rect x="16.32" y="6.74" width="41.24" height="0.84" fill="#9ac733"/><rect x="16.32" y="7.58" width="41.24" height="0.84" fill="#9bc834"/><rect x="16.32" y="8.42" width="41.24" height="0.84" fill="#9bc835"/><rect x="16.32" y="9.26" width="41.24" height="0.84" fill="#9cc936"/><rect x="16.32" y="10.11" width="41.24" height="0.84" fill="#9dc937"/><rect x="16.32" y="10.95" width="41.24" height="0.84" fill="#9eca38"/><rect x="16.32" y="11.79" width="41.24" height="0.84" fill="#9ecb39"/><rect x="16.32" y="12.63" width="41.24" height="0.84" fill="#9fcb3a"/><rect x="16.32" y="13.48" width="41.24" height="0.84" fill="#a0cc3b"/><rect x="16.32" y="14.32" width="41.24" height="0.84" fill="#a0cc3c"/><rect x="16.32" y="15.16" width="41.24" height="0.84" fill="#a1cd3d"/><rect x="16.32" y="16" width="41.24" height="0.84" fill="#a2ce3e"/><rect x="16.32" y="16.84" width="41.24" height="0.84" fill="#a3ce3f"/><rect x="16.32" y="17.69" width="41.24" height="0.84" fill="#a3cf40"/><rect x="16.32" y="18.53" width="41.24" height="0.84" fill="#a4cf41"/><rect x="16.32" y="19.37" width="41.24" height="0.84" fill="#a5d042"/><rect x="16.32" y="20.21" width="41.24" height="0.84" fill="#a6d143"/><rect x="16.32" y="21.05" width="41.24" height="0.84" fill="#a6d144"/><rect x="16.32" y="21.9" width="41.24" height="0.84" fill="#a7d245"/><rect x="16.32" y="22.74" width="41.24" height="0.84" fill="#a8d346"/><rect x="16.32" y="23.58" width="41.24" height="0.84" fill="#a8d347"/><rect x="16.32" y="24.42" width="41.24" height="0.84" fill="#a9d448"/><rect x="16.32" y="25.27" width="41.24" height="0.84" fill="#aad449"/><rect x="16.32" y="26.11" width="41.24" height="0.84" fill="#abd54a"/><rect x="16.32" y="26.95" width="41.24" height="0.84" fill="#abd64b"/><rect x="16.32" y="27.79" width="41.24" height="0.84" fill="#acd64c"/><rect x="16.32" y="28.63" width="41.24" height="0.84" fill="#add74e"/><rect x="16.32" y="29.48" width="41.24" height="0.84" fill="#aed74f"/><rect x="16.32" y="30.32" width="41.24" height="0.84" fill="#aed850"/><rect x="16.32" y="31.16" width="41.24" height="0.84" fill="#afd951"/><rect x="16.32" y="32" width="41.24" height="0.84" fill="#b0d952"/><rect x="16.32" y="32.85" width="41.24" height="0.84" fill="#b1da53"/><rect x="16.32" y="33.69" width="41.24" height="0.84" fill="#b1da54"/><rect x="16.32" y="34.53" width="41.24" height="0.84" fill="#b2db55"/><rect x="16.32" y="35.37" width="41.24" height="0.84" fill="#b3dc56"/><rect x="16.32" y="36.21" width="41.24" height="0.84" fill="#b3dc57"/><rect x="16.32" y="37.06" width="41.24" height="0.84" fill="#b4dd58"/><rect x="16.32" y="37.9" width="41.24" height="0.84" fill="#b5de59"/><rect x="16.32" y="38.74" width="41.24" height="0.84" fill="#b6de5a"/><rect x="16.32" y="39.58" width="41.24" height="0.84" fill="#b6df5b"/><rect x="16.32" y="40.43" width="41.24" height="0.84" fill="#b7df5c"/><rect x="16.32" y="41.27" width="41.24" height="0.84" fill="#b8e05d"/><rect x="16.32" y="42.11" width="41.24" height="0.84" fill="#b9e15e"/><rect x="16.32" y="42.95" width="41.24" height="0.84" fill="#b9e15f"/><rect x="16.32" y="43.79" width="41.24" height="0.84" fill="#bae260"/><rect x="16.32" y="44.64" width="41.24" height="0.84" fill="#bbe261"/><rect x="16.32" y="45.48" width="41.24" height="0.84" fill="#bbe362"/><rect x="16.32" y="46.32" width="41.24" height="0.84" fill="#bce463"/><rect x="16.32" y="47.16" width="41.24" height="0.84" fill="#bde464"/><rect x="16.32" y="48.01" width="41.24" height="0.84" fill="#bee565"/><rect x="16.32" y="48.85" width="41.24" height="0.84" fill="#bee566"/><rect x="16.32" y="49.69" width="41.24" height="0.84" fill="#bfe667"/><rect x="16.32" y="50.53" width="41.24" height="0.84" fill="#c0e768"/><rect x="16.32" y="51.37" width="41.24" height="0.84" fill="#c1e769"/><rect x="16.32" y="52.22" width="41.24" height="0.84" fill="#c1e86a"/><rect x="16.32" y="53.06" width="41.24" height="0.63" fill="#c2e96b"/><rect x="12.74" width="48.48" height="0.84" fill="#94c22b"/><rect x="12.74" y="0.84" width="48.48" height="0.84" fill="#95c32c"/><rect x="12.74" y="1.68" width="48.48" height="0.84" fill="#95c32d"/><rect x="12.74" y="2.53" width="48.48" height="0.84" fill="#96c42e"/><rect x="12.74" y="3.37" width="48.48" height="0.84" fill="#97c42f"/><rect x="12.74" y="4.21" width="48.48" height="0.84" fill="#98c530"/><rect x="12.74" y="5.05" width="48.48" height="0.84" fill="#98c631"/><rect x="12.74" y="5.9" width="48.48" height="0.84" fill="#99c632"/><rect x="12.74" y="6.74" width="48.48" height="0.84" fill="#9ac733"/><rect x="12.74" y="7.58" width="48.48" height="0.84" fill="#9bc834"/><rect x="12.74" y="8.42" width="48.48" height="0.84" fill="#9bc835"/><rect x="12.74" y="9.26" width="48.48" height="0.84" fill="#9cc936"/><rect x="12.74" y="10.11" width="48.48" height="0.84" fill="#9dc937"/><rect x="12.74" y="10.95" width="48.48" height="0.84" fill="#9eca38"/><rect x="12.74" y="11.79" width="48.48" height="0.84" fill="#9ecb39"/><rect x="12.74" y="12.63" width="48.48" height="0.84" fill="#9fcb3a"/><rect x="12.74" y="13.48" width="48.48" height="0.84" fill="#a0cc3b"/><rect x="12.74" y="14.32" width="48.48" height="0.84" fill="#a0cc3c"/><rect x="12.74" y="15.16" width="48.48" height="0.84" fill="#a1cd3d"/><rect x="12.74" y="16" width="48.48" height="0.84" fill="#a2ce3e"/><rect x="12.74" y="16.84" width="48.48" height="0.84" fill="#a3ce3f"/><rect x="12.74" y="17.69" width="48.48" height="0.84" fill="#a3cf40"/><rect x="12.74" y="18.53" width="48.48" height="0.84" fill="#a4cf41"/><rect x="12.74" y="19.37" width="48.48" height="0.84" fill="#a5d042"/><rect x="12.74" y="20.21" width="48.48" height="0.84" fill="#a6d143"/><rect x="12.74" y="21.05" width="48.48" height="0.84" fill="#a6d144"/><rect x="12.74" y="21.9" width="48.48" height="0.84" fill="#a7d245"/><rect x="12.74" y="22.74" width="48.48" height="0.84" fill="#a8d346"/><rect x="12.74" y="23.58" width="48.48" height="0.84" fill="#a8d347"/><rect x="12.74" y="24.42" width="48.48" height="0.84" fill="#a9d448"/><rect x="12.74" y="25.27" width="48.48" height="0.84" fill="#aad449"/><rect x="12.74" y="26.11" width="48.48" height="0.84" fill="#abd54a"/><rect x="12.74" y="26.95" width="48.48" height="0.84" fill="#abd64b"/><rect x="12.74" y="27.79" width="48.48" height="0.84" fill="#acd64c"/><rect x="12.74" y="28.63" width="48.48" height="0.84" fill="#add74e"/><rect x="12.74" y="29.48" width="48.48" height="0.84" fill="#aed74f"/><rect x="12.74" y="30.32" width="48.48" height="0.84" fill="#aed850"/><rect x="12.74" y="31.16" width="48.48" height="0.84" fill="#afd951"/><rect x="12.74" y="32" width="48.48" height="0.84" fill="#b0d952"/><rect x="12.74" y="32.85" width="48.48" height="0.84" fill="#b1da53"/><rect x="12.74" y="33.69" width="48.48" height="0.84" fill="#b1da54"/><rect x="12.74" y="34.53" width="48.48" height="0.84" fill="#b2db55"/><rect x="12.74" y="35.37" width="48.48" height="0.84" fill="#b3dc56"/><rect x="12.74" y="36.21" width="48.48" height="0.84" fill="#b3dc57"/><rect x="12.74" y="37.06" width="48.48" height="0.84" fill="#b4dd58"/><rect x="12.74" y="37.9" width="48.48" height="0.84" fill="#b5de59"/><rect x="12.74" y="38.74" width="48.48" height="0.84" fill="#b6de5a"/><rect x="12.74" y="39.58" width="48.48" height="0.84" fill="#b6df5b"/><rect x="12.74" y="40.43" width="48.48" height="0.84" fill="#b7df5c"/><rect x="12.74" y="41.27" width="48.48" height="0.84" fill="#b8e05d"/><rect x="12.74" y="42.11" width="48.48" height="0.84" fill="#b9e15e"/><rect x="12.74" y="42.95" width="48.48" height="0.84" fill="#b9e15f"/><rect x="12.74" y="43.79" width="48.48" height="0.84" fill="#bae260"/><rect x="12.74" y="44.64" width="48.48" height="0.84" fill="#bbe261"/><rect x="12.74" y="45.48" width="48.48" height="0.84" fill="#bbe362"/><rect x="12.74" y="46.32" width="48.48" height="0.84" fill="#bce463"/><rect x="12.74" y="47.16" width="48.48" height="0.84" fill="#bde464"/><rect x="12.74" y="48.01" width="48.48" height="0.84" fill="#bee565"/><rect x="12.74" y="48.85" width="48.48" height="0.84" fill="#bee566"/><rect x="12.74" y="49.69" width="48.48" height="0.84" fill="#bfe667"/><rect x="12.74" y="50.53" width="48.48" height="0.84" fill="#c0e768"/><rect x="12.74" y="51.37" width="48.48" height="0.84" fill="#c1e769"/><rect x="12.74" y="52.22" width="48.48" height="0.84" fill="#c1e86a"/><rect x="12.74" y="53.06" width="48.48" height="0.84" fill="#c2e96b"/><rect x="12.74" y="53.9" width="48.48" height="0.84" fill="#c3e96c"/><rect x="12.74" y="54.74" width="48.48" height="0.84" fill="#c4ea6d"/><rect x="12.74" y="55.59" width="48.48" height="0.84" fill="#c4ea6e"/><rect x="12.74" y="56.43" width="48.48" height="0.84" fill="#c5eb6f"/></g></svg>