<svg id="Layer_1" data-name="Layer 1" xmlns="http://www.w3.org/2000/svg" viewBox="0 0 26.38 23.41"><path d="M16.78,0l-.59.81-4,5.6H8A5.13,5.13,0,0,0,4.66,8.06l-.35.32L0,12v2.59L5.59,9.91,6,9.59c.88-.75,1.4-1.18,2-1.18h2.75l-4.56,6.4L6,15.09v2.22l1.47-.81,3.66-2a5.66,5.66,0,0,1,2.71-1.09A1.18,1.18,0,0,1,15,14.69a1.12,1.12,0,0,1-.28.84,3.94,3.94,0,0,1-1,.78,16.22,16.22,0,0,0-2.28,1.85l-.06.09-.07.06A6.09,6.09,0,0,1,6,21.41H0v2H6a7.73,7.73,0,0,0,6-3l2.38,1.81.81.59.59-.81,10-14,.57-.81-.79-.6-8-6Zm.44,2.84,6.41,4.79L14.78,20,13.53,19a9.47,9.47,0,0,1,1.28-1,5.39,5.39,0,0,0,1.47-1.19A3.33,3.33,0,0,0,17,14.69a3,3,0,0,0,0-.31,2.23,2.23,0,0,0,1.62-1.07,3.24,3.24,0,0,0-1.12-4.22,3.31,3.31,0,0,0-2-.68A2.49,2.49,0,0,0,13.38,9.5a2.59,2.59,0,0,0-.32,2,8.55,8.55,0,0,0-2.9,1.28ZM18.84,6a.89.89,0,0,0-.78.31c-.33.44-.06,1.19.6,1.69s1.48.57,1.81.12.07-1.21-.59-1.71A2,2,0,0,0,18.84,6ZM15.5,10.41a1.32,1.32,0,0,1,.78.31,1.39,1.39,0,0,1,.66,1.53h0v0a.26.26,0,0,1-.16.1l-1.59-.94a1,1,0,0,1-.1-.88C15.16,10.41,15.41,10.41,15.5,10.41Z"/></svg>