<svg width="32" height="32" viewBox="0 0 32 32" xmlns="http://www.w3.org/2000/svg">
    <path
        d="M31 1H1V27.4706H4.52941V31H9.82353V27.4706H22.1765V31H27.4706V27.4706H31V1ZM8.05882 29.2353H6.29412V27.4706H8.05882V29.2353ZM25.7059 29.2353H23.9412V27.4706H25.7059V29.2353ZM29.2353 25.7059C28.1016 25.7059 4.50035 25.7059 2.76471 25.7059V2.76471H29.2353V25.7059Z" />
    <path
        d="M25.7077 17.3528H27.4724V12.0587H25.7077V4.5293H4.53125V23.9411H25.7077V17.3528ZM25.7077 15.5881H23.943V13.8234H25.7077V15.5881ZM6.29596 22.1764V6.294H23.943V12.0587H22.1783V17.3528H23.943V22.1764H6.29596Z" />
    <path
        d="M17.9809 9.24414L16.0306 11.1944C14.934 10.5452 13.5487 10.5406 12.4441 11.1944L10.4939 9.24414L9.24609 10.492L11.1963 12.4422C10.5474 13.5384 10.5423 14.9238 11.1963 16.0287L9.24609 17.979L10.4939 19.2268L12.4441 17.2765C13.5426 17.9268 14.928 17.9294 16.0306 17.2765L17.9809 19.2268L19.2287 17.979L17.2785 16.0287C17.9288 14.9302 17.9313 13.5448 17.2785 12.4422L19.2287 10.492L17.9809 9.24414ZM12.9896 15.4832C12.6563 15.1499 12.4727 14.7068 12.4727 14.2354C12.4727 13.2601 13.262 12.4707 14.2374 12.4707C14.7087 12.4707 15.1519 12.6543 15.4852 12.9876C16.1749 13.6772 16.175 14.7935 15.4851 15.4833C14.7956 16.1728 13.6793 16.1731 12.9896 15.4832Z" />
</svg>