<svg id="Layer_1" data-name="Layer 1" xmlns="http://www.w3.org/2000/svg" viewBox="0 0 22.42 23.33"><path d="M22.11,17.14l.31-6.59a2.26,2.26,0,0,0-2.27-2.26,2.21,2.21,0,0,0-1.09.28A2.28,2.28,0,0,0,15.71,6.9,2.24,2.24,0,0,0,13.47,5a2.19,2.19,0,0,0-1.08.27v-3a2.26,2.26,0,1,0-4.52,0V13.64L4,10.79A2.63,2.63,0,0,0,.52,11a1.77,1.77,0,0,0,0,2.5L8.4,21.42A6.45,6.45,0,0,0,13,23.33h2.63a6.52,6.52,0,0,0,6.49-6.19Zm-6.49,5H13a5.3,5.3,0,0,1-3.76-1.55L1.35,12.71a.6.6,0,0,1,0-.84,1.47,1.47,0,0,1,1.91-.13l4.85,3.53a.58.58,0,0,0,.62.05.6.6,0,0,0,.32-.52V2.26a1.08,1.08,0,0,1,1.08-1.08,1,1,0,0,1,.76.32,1,1,0,0,1,.32.76v8.36a.59.59,0,0,0,.59.59.58.58,0,0,0,.59-.59V7.2a1.08,1.08,0,0,1,2.16,0v3.42a.6.6,0,0,0,.59.59.62.62,0,0,0,.42-.17.59.59,0,0,0,.17-.42V8.87A1.08,1.08,0,0,1,16.82,7.8a1.07,1.07,0,0,1,1.07,1.07v1.76h0a.59.59,0,0,0,.59.58.6.6,0,0,0,.59-.59v-.07a1.11,1.11,0,0,1,.31-.77,1.09,1.09,0,0,1,.77-.31,1.07,1.07,0,0,1,1.08,1l-.31,6.57a5.37,5.37,0,0,1-1.55,3.5A5.3,5.3,0,0,1,15.62,22.14Z"/></svg>