<svg width="45" height="57" viewBox="0 0 45 57" fill="none" xmlns="http://www.w3.org/2000/svg">
<path fill-rule="evenodd" clip-rule="evenodd" d="M17.488 0C16.8532 0 16.2216 0.193382 15.6836 0.573909C14.7463 1.23983 14.2504 2.36738 14.3938 3.5074C14.9584 8.00822 13.9681 14.2963 9.49534 18.4462L9.4002 18.5351C6.56653 21.1629 0.669922 26.6338 0.669922 35.4108C0.669922 47.4239 9.74954 56.1433 22.2586 56.1433C37.2598 56.1433 44.0921 44.8257 44.0921 34.3098C44.0921 26.5714 41.051 20.1664 38.2251 17.4886C37.6356 16.9319 36.8636 16.6356 36.0792 16.6356C35.7111 16.6356 35.3384 16.7011 34.9813 16.8352C34.5586 16.9943 34.1843 17.2391 33.8771 17.5463C30.7846 7.79144 23.7199 2.73699 18.8775 0.327503C18.4393 0.107608 17.9621 0 17.488 0ZM17.488 3.11907C26.1138 7.41403 33.4015 16.0383 32.1663 31.4964C34.7302 27.4135 35.6519 24.3662 36.0807 19.7546C38.4123 21.9629 40.973 27.6662 40.973 34.3098C40.973 44.0834 34.7988 53.0242 22.2586 53.0242C12.3586 53.0242 3.78899 46.5584 3.78899 35.4108C3.78899 27.9048 9.01188 23.1498 11.6163 20.7325C16.9624 15.77 18.1461 8.36691 17.488 3.11907Z" fill="url(#paint0_linear)"/>
<path fill-rule="evenodd" clip-rule="evenodd" d="M22.2584 34.3099C20.5569 36.2952 19.1393 40.3453 19.1393 43.6672C19.1393 46.911 21.0185 52.9043 23.8179 54.5839H28.4965C23.1785 49.9458 22.2584 42.1076 22.2584 34.3099Z" fill="url(#paint1_linear)"/>
<defs>
<linearGradient id="paint0_linear" x1="22.381" y1="0" x2="22.381" y2="56.1433" gradientUnits="userSpaceOnUse">
<stop stop-color="#8FC418"/>
<stop offset="1" stop-color="#C9EE73"/>
</linearGradient>
<linearGradient id="paint1_linear" x1="23.8179" y1="34.3099" x2="23.8179" y2="54.5839" gradientUnits="userSpaceOnUse">
<stop stop-color="#8FC418"/>
<stop offset="1" stop-color="#DBFC8F"/>
</linearGradient>
</defs>
</svg>
