<svg id="Layer_1" data-name="Layer 1" xmlns="http://www.w3.org/2000/svg" viewBox="0 0 26 22"><defs><style>.cls-1{fill:none;}</style></defs><path class="cls-1" d="M9,14H3a1,1,0,0,0-1,1v1a4,4,0,0,0,8,0V15A1,1,0,0,0,9,14Z"/><path class="cls-1" d="M23,14H17a1,1,0,0,0-1,1v1a4,4,0,0,0,8,0V15A1,1,0,0,0,23,14Z"/><path d="M23,0a3,3,0,0,0-3,3V4h2V3a1,1,0,0,1,2,0v9.19A3,3,0,0,0,23,12H3a3,3,0,0,0-1,.19V3A1,1,0,0,1,4,3V4H6V3A3,3,0,0,0,0,3V16a6,6,0,0,0,12,0V15a3,3,0,0,0-.19-1h2.38A3,3,0,0,0,14,15v1a6,6,0,0,0,12,0V3A3,3,0,0,0,23,0ZM10,16a4,4,0,0,1-8,0V15a1,1,0,0,1,1-1H9a1,1,0,0,1,1,1Zm14,0a4,4,0,0,1-8,0V15a1,1,0,0,1,1-1h6a1,1,0,0,1,1,1Z"/></svg>