<svg id="Layer_1" data-name="Layer 1" xmlns="http://www.w3.org/2000/svg" viewBox="0 0 17.19 17.25"><path d="M16.57,12.31l-2.1-2.1a1.84,1.84,0,0,0-2.73,0l-1.16,1.16-.21-.1,0,0A3.09,3.09,0,0,1,10,11,12.76,12.76,0,0,1,6.84,8.19a7.59,7.59,0,0,1-1-1.56c.31-.28.59-.56.85-.83L7,5.47a2,2,0,0,0,.64-1.39A2,2,0,0,0,7,2.7L5.53,1.22,4.9.59a1.88,1.88,0,0,0-2.72,0L.87,1.9A2.85,2.85,0,0,0,0,3.73,6.61,6.61,0,0,0,.51,6.61a16.69,16.69,0,0,0,2.94,4.91,18.09,18.09,0,0,0,6,4.71,9.27,9.27,0,0,0,3.4,1h.25a3,3,0,0,0,2.29-1,8.84,8.84,0,0,1,.68-.71c.16-.15.33-.31.48-.47A1.86,1.86,0,0,0,16.57,12.31ZM6.11,4.68A3.44,3.44,0,0,0,5.84,5L5.76,5c-.29.3-.57.59-.9.88a.85.85,0,0,0-.22,1v0a8.51,8.51,0,0,0,1.26,2,14,14,0,0,0,3.42,3.11,3.67,3.67,0,0,0,.48.26l.37.21.05,0a.94.94,0,0,0,.42.11.86.86,0,0,0,.64-.29l1.31-1.31a.64.64,0,0,1,1,0l2.11,2.11a.68.68,0,0,1,0,1.08l-.35.36-.11.1a8.85,8.85,0,0,0-.74.76,1.72,1.72,0,0,1-1.37.58H13a8.38,8.38,0,0,1-3-.88,16.7,16.7,0,0,1-5.63-4.41h0A15.28,15.28,0,0,1,1.65,6.19a5.37,5.37,0,0,1-.43-2.36,1.68,1.68,0,0,1,.5-1.08L3,1.45a.66.66,0,0,1,1,0c.23.21.45.44.68.68l.37.37,1,1a.8.8,0,0,1,.27.53.82.82,0,0,1-.27.54Z"/></svg>