<svg id="Layer_1" data-name="Layer 1" xmlns="http://www.w3.org/2000/svg" viewBox="0 0 15.63 21.55"><defs><style>.cls-1{isolation:isolate;}</style></defs><path class="cls-1" d="M7.81,0A7.83,7.83,0,0,0,0,7.81a9.29,9.29,0,0,0,1.18,3.93A35.31,35.31,0,0,0,3.65,16c1.78,2.68,3.56,4.86,3.56,4.86l.6.74.61-.74S10.19,18.63,12,16a38.23,38.23,0,0,0,2.47-4.21,9.43,9.43,0,0,0,1.18-3.93A7.83,7.83,0,0,0,7.81,0Zm0,1.56a6.24,6.24,0,0,1,6.25,6.25,8.65,8.65,0,0,1-1,3.25,36.66,36.66,0,0,1-2.36,4A46.26,46.26,0,0,1,7.81,19c-.45-.57-1.43-1.75-2.87-3.9a38.32,38.32,0,0,1-2.36-4,8.84,8.84,0,0,1-1-3.25A6.24,6.24,0,0,1,7.81,1.56Zm0,4.69a1.57,1.57,0,0,0,0,3.13,1.57,1.57,0,1,0,0-3.13Z"/></svg>