<svg id="Layer_1" data-name="Layer 1" xmlns="http://www.w3.org/2000/svg" viewBox="0 0 13.59 13.59"><path d="M12.89,6.09h0a.66.66,0,0,0-.27.06.65.65,0,0,0-.23.15.91.91,0,0,0-.15.23.81.81,0,0,0-.05.27,5.31,5.31,0,0,1-.79,2.79,5.41,5.41,0,0,1-2.12,2,5.39,5.39,0,1,1,.61-9.2,5.3,5.3,0,0,1,1,.9h-2a.71.71,0,0,0,0,1.41h3.28a.71.71,0,0,0,.49-.21.67.67,0,0,0,.21-.5V.7a.67.67,0,0,0-.21-.49.69.69,0,0,0-1,0,.71.71,0,0,0-.21.49V1.87a6.13,6.13,0,0,0-.79-.64A6.75,6.75,0,0,0,8.27.16,7,7,0,0,0,5.62.1a7.15,7.15,0,0,0-2.48,1,6.79,6.79,0,0,0-.24,11.3,6.75,6.75,0,0,0,3.88,1.23,6.94,6.94,0,0,0,1.2-.1A6.79,6.79,0,0,0,13.59,6.8a.7.7,0,0,0-.2-.5A.71.71,0,0,0,12.89,6.09Z"/></svg>