<svg width="32" height="32" viewBox="0 0 32 32" xmlns="http://www.w3.org/2000/svg">
    <path
        d="M22.9539 6.7966V4.54777C22.9539 3.14293 21.811 2 20.4062 2H12.593C11.1882 2 10.0452 3.14293 10.0452 4.54777V6.7966H2V27.9701H31V6.7966H22.9539ZM11.7437 4.54777C11.7437 4.07949 12.1247 3.69851 12.593 3.69851H20.4062C20.8744 3.69851 21.2554 4.07949 21.2554 4.54777V6.7966H11.7437V4.54777ZM3.69851 26.2716V19.4056C3.96433 19.4999 4.25002 19.5517 4.54777 19.5517H7.26392V22.4349H12.3595V19.5517H20.6406V22.4349H25.7361V19.5517H28.4523C28.75 19.5517 29.0357 19.4999 29.3015 19.4056V26.2716H3.69851ZM8.96243 20.7363V16.6685H10.6609V20.7363H8.96243ZM22.3391 20.7363V16.6685H24.0376V20.7363H22.3391ZM29.3015 17.0039C29.3015 17.4722 28.9205 17.8532 28.4522 17.8532H25.7361V14.97H20.6405V17.8532H12.3595V14.97H7.26392V17.8532H4.54777C4.07949 17.8532 3.69851 17.4722 3.69851 17.0039V8.49511H29.3015V17.0039Z" />
</svg>