<svg id="Layer_1" data-name="Layer 1" xmlns="http://www.w3.org/2000/svg" viewBox="0 0 42.08 40.35"><path d="M32,40.35A3.5,3.5,0,0,1,30.51,40l-.23-.12L21,34.63,11.8,39.91l-.24.12a3.42,3.42,0,0,1-3.42-.33,3.37,3.37,0,0,1-1.32-3.39L9,25.86l-3.6-3.27L1.1,18.7l-.17-.18a3.36,3.36,0,0,1,1.84-5.63l.23,0,10.58-1.17L18,2l.13-.25a3.37,3.37,0,0,1,5.89,0l.14.25,4.38,9.71,10.58,1.17.23,0a3.36,3.36,0,0,1,1.84,5.64l-.17.17-7.87,7.17L35.26,36.3a3.4,3.4,0,0,1-1.33,3.41A3.33,3.33,0,0,1,32,40.35ZM13.63,25.58c-.09.41-1.05,5.05-1.9,9.18l8.2-4.67a2.25,2.25,0,0,1,2.22,0l8.2,4.67-1.91-9.24a2.26,2.26,0,0,1,.69-2.12l7-6.34-9.38-1a2.26,2.26,0,0,1-1.8-1.32L21,6.11,17.16,14.7A2.27,2.27,0,0,1,15.35,16L6,17.06l7,6.34A2.24,2.24,0,0,1,13.63,25.58Z"/></svg>