<svg id="Layer_1" data-name="Layer 1" xmlns="http://www.w3.org/2000/svg" viewBox="0 0 9.38 12.66"><defs><style>.cls-1{fill-rule:evenodd;}</style></defs><path class="cls-1" d="M5.18.21a.69.69,0,0,0-1,0L.67,3.72A.7.7,0,0,0,1.18,4.9a.68.68,0,0,0,.49-.18L4,2.4V8.67a.71.71,0,0,0,.21.5.71.71,0,0,0,1,0,.67.67,0,0,0,.21-.5V2.4L7.71,4.72a.89.89,0,0,0,.22.16.67.67,0,0,0,.28.06.81.81,0,0,0,.27-.05.78.78,0,0,0,.24-.16.61.61,0,0,0,.15-.23.54.54,0,0,0,.05-.28A.66.66,0,0,0,8.86,4a.73.73,0,0,0-.16-.23ZM.7,11.25a.67.67,0,0,0-.49.21.69.69,0,0,0,0,1,.71.71,0,0,0,.49.21h8a.7.7,0,0,0,.5-1.2.67.67,0,0,0-.5-.21Z"/></svg>