<svg id="Layer_1" data-name="Layer 1" xmlns="http://www.w3.org/2000/svg" viewBox="0 0 7.71 14.14"><defs><style>.cls-1{fill:none;}</style></defs><path class="cls-1" d="M2.31,4.33c0,.27.2.71,1,1.15V3.27l-.58.27A.82.82,0,0,0,2.31,4.33Z"/><path class="cls-1" d="M4.24,7.87v3A1.6,1.6,0,0,0,5.79,9.28C5.79,8.84,5.3,8.31,4.24,7.87Z"/><path d="M4.44,6c-.1,0-.1-.09-.2-.09V3.18a7,7,0,0,1,2.12.53l.87-1.59a8.29,8.29,0,0,0-3-.71V0h-1V1.41a6.36,6.36,0,0,0-1.93.8,2.76,2.76,0,0,0-1,2c0,.62.19,2,2.89,3.18v3.45A12.72,12.72,0,0,1,1,10.08l-1,1.5a11.11,11.11,0,0,0,3.28,1.06v1.5h1v-1.5A3.63,3.63,0,0,0,7.71,9.28C7.71,8,6.75,6.89,4.44,6ZM3.28,5.48c-.77-.44-1-.88-1-1.15a.82.82,0,0,1,.39-.79l.58-.27Zm1,5.39v-3c1.06.44,1.55,1,1.55,1.41A1.6,1.6,0,0,1,4.24,10.87Z"/></svg>