<svg id="Layer_1" data-name="Layer 1" xmlns="http://www.w3.org/2000/svg" viewBox="0 0 26 25"><path d="M5,0V4.16l-4.56,3L0,7.47V25H26V7.47l-.44-.31L21,4.16V0ZM8.91,2h8.18a1.7,1.7,0,0,0-.09.5A1.5,1.5,0,0,0,18.5,4a1.7,1.7,0,0,0,.5-.09v7.34l-2.19,1.63a4,4,0,0,0-7.62,0L7,11.25V3.91A1.7,1.7,0,0,0,7.5,4,1.5,1.5,0,0,0,9,2.5,1.7,1.7,0,0,0,8.91,2ZM13,5.5A1.5,1.5,0,1,0,14.5,7,1.5,1.5,0,0,0,13,5.5ZM5,6.56V9.75L2.75,8.06Zm16,0,2.25,1.5L21,9.75ZM2,10l10.41,7.81.59.44.59-.44L24,10V23H2Zm11,2a1.9,1.9,0,0,1,2,2v.25l-2,1.5-2-1.5V14A1.9,1.9,0,0,1,13,12Z"/></svg>