<svg width="110" height="65" viewBox="0 0 110 65" fill="none" xmlns="http://www.w3.org/2000/svg">
<path d="M55.4592 31.0612C60.7502 31.0612 65.0622 34.6362 65.0622 39.0802C65.0622 43.4912 60.7502 47.0992 55.4592 47.0992C50.1242 47.0992 45.8122 43.4802 45.8122 39.0802C45.8122 34.6252 50.1242 31.0612 55.4592 31.0612ZM55.4592 53.5012C64.3142 53.5012 71.5081 47.0112 71.5081 39.0802C71.5081 31.1052 64.3252 24.6152 55.4592 24.6152C46.5932 24.6152 39.4102 31.1052 39.4102 39.0802C39.4102 47.0112 46.6042 53.5012 55.4592 53.5012Z" fill="#531A62"/>
<path d="M26.5749 6.99313H42.6239V13.3951H26.5749V6.99313ZM106.798 0.536133C105.038 0.536133 103.597 1.97713 103.597 3.73713V45.4711H90.7489V13.3841H87.5589C85.7989 13.3841 84.3579 14.8251 84.3579 16.5851V58.3191H7.32491V19.7861H74.7109C76.4709 19.7861 77.9119 18.3451 77.9119 16.5851V13.3841H49.0149V6.98213H93.9499C95.7539 6.98213 97.1509 5.54113 97.1509 3.73713V0.536133H20.1289V13.3841H0.878906V64.7211H90.7489V51.8731H109.999V0.536133H106.798Z" fill="#531A62"/>
</svg>
