<svg width="111" height="110" viewBox="0 0 111 110" fill="none" xmlns="http://www.w3.org/2000/svg">
<g clip-path="url(#clip0)">
<path fill-rule="evenodd" clip-rule="evenodd" d="M7.51953 16.764L14.0205 41.734C14.3065 42.735 14.5375 43.824 14.8235 44.825C15.7255 48.191 15.3955 50.094 18.4315 52.987C19.0475 53.603 19.9495 54.505 20.8955 54.505H32.6655C32.9955 54.549 32.8525 54.505 33.1385 55.363C34.5575 59.829 37.4065 63.998 40.8275 67.089C44.8205 70.741 49.8915 72.501 55.5015 73.216V100.562C40.8275 100.562 41.3555 99.33 41.3555 105.589C41.3555 106.59 41.1685 107.822 41.4985 108.581C41.9715 109.527 42.4005 109.483 43.2585 110H74.9275C75.7855 109.483 76.2145 109.527 76.6325 108.581C77.0175 107.822 76.8195 106.535 76.8195 105.589C76.8195 99.319 77.2925 100.562 62.6735 100.562L62.6295 73.26C68.4265 72.6 72.7935 70.51 76.8195 66.946C80.0425 64.141 82.9465 59.488 84.4205 55.363C84.7065 54.505 84.6625 54.56 84.8935 54.505H96.7185C97.7195 54.505 97.7195 54.604 98.3795 54.12C102.648 50.985 102.318 48.609 103.275 45.056C103.517 44.055 103.847 42.922 104.133 41.877C105.222 37.752 106.267 33.286 107.411 29.249L110.634 16.621C110.678 10.879 98.6655 11.869 94.8265 11.869L87.0385 11.913C86.0375 11.913 86.3235 12.056 86.2795 10.208C86.2795 6.842 86.2795 3.421 86.3785 0H31.8735C31.8735 3.465 31.8735 6.886 31.8735 10.351C31.8735 11.825 32.2585 11.913 30.9275 11.913L23.2825 11.869C18.8165 11.869 13.1735 11.297 9.46653 13.486C8.03653 14.333 7.51953 15.147 7.51953 16.764ZM38.9905 49.995C38.9905 51.612 40.6075 55.363 41.4545 56.826C42.6865 58.96 43.9735 60.434 45.7225 61.996C47.4825 63.47 49.4295 64.46 51.8495 65.274C55.6005 66.561 60.2535 66.649 64.1915 65.791C70.1755 64.46 74.3995 60.335 77.0065 54.967C77.6225 53.735 79.1955 49.456 79.1955 47.751V7.073H38.8475L38.9905 49.995ZM86.2795 47.377C88.4685 47.476 92.6375 47.421 95.0135 47.421C95.4865 47.421 95.7725 46.475 95.8165 45.947C95.8605 45.144 96.0035 44.803 96.2015 44.099C96.9165 41.25 102.615 20.031 102.703 18.942H86.2795V47.377ZM23.1285 47.432H31.5765C32.0495 47.432 31.8625 46.959 31.8625 45.958V18.986L15.4835 18.942C15.5825 20.559 22.1825 44.011 22.3145 45.815C22.3695 46.431 22.5675 47.432 23.1285 47.432Z" fill="#531A62"/>
</g>
<defs>
<clipPath id="clip0">
<rect width="110" height="110" fill="white" transform="translate(0.667969)"/>
</clipPath>
</defs>
</svg>
