<svg width="111" height="110" viewBox="0 0 111 110" fill="none" xmlns="http://www.w3.org/2000/svg">
<g clip-path="url(#clip0)">
<path d="M12.6279 35.6301H36.8499L36.9599 10.3961L83.3249 10.4511V34.3541L77.1869 34.4091V16.6991L43.0319 16.6441V93.3031H49.5439L49.5989 77.2981L64.3279 77.2431V83.4361H55.8359L55.7259 93.3031L75.7789 93.3581C75.2949 92.6651 74.7119 91.9721 74.3379 91.4331C73.4799 90.3111 72.6329 89.1891 71.7749 88.0671C66.8689 81.4561 60.7309 71.7981 58.4429 63.9001C58.1239 62.6241 57.8599 61.3371 57.8049 60.0611C57.3759 54.0331 59.8289 48.1151 63.8879 43.7371C68.3209 38.8861 74.4479 36.1031 81.0149 36.1031C87.6259 36.1031 93.7089 38.8201 98.1969 43.6821C102.201 48.0601 104.654 53.9781 104.28 60.0061C104.225 61.2821 103.961 62.6241 103.642 63.9001C102.41 68.1131 100.331 72.3261 98.1419 76.1211C95.6339 80.4441 92.8069 84.6021 89.8699 88.6611C88.8029 90.0471 87.7359 91.4881 86.7239 92.8741C86.6139 93.0391 86.4599 93.1931 86.2949 93.3581C89.8699 93.4681 93.4999 93.3581 97.0749 93.3581C99.1539 93.3581 101.233 93.3031 103.312 93.2481C104.588 93.2481 108.966 93.1381 110.088 93.5121L110.836 93.7211V99.2211L110.033 99.4301C109.076 99.6391 106.249 99.5401 105.182 99.5951C102.19 99.5951 99.1539 99.5951 96.1619 99.5951C91.7289 99.5401 87.3069 99.4851 82.8739 99.5401C73.9089 99.5951 64.8999 99.4851 55.9349 99.5401C37.9609 99.6501 19.9209 99.5951 1.94694 99.5401L0.945937 99.4851L0.835938 93.3471H7.34794L7.40294 35.7291L12.6279 35.6301ZM45.2209 31.6371L45.2759 25.4991H74.9869L74.9319 31.6921L45.2209 31.6371ZM45.2759 44.9691V38.7761L62.2379 38.8311V44.9691H45.2759ZM45.2759 58.2571V52.0641L55.8909 52.1191V58.2571H45.2759ZM13.5299 93.2481L36.8389 93.3031V41.8231H13.5299V93.2481ZM15.5099 64.7581L15.5649 58.5651H34.8809V64.7581H15.5099ZM15.5099 76.1211V70.0381H34.9249L34.8699 76.2311L15.5099 76.1211ZM81.0699 90.2671C82.3019 88.8261 84.3259 85.8891 84.9639 84.9321C86.4049 82.9081 87.9009 80.7741 89.2869 78.6951C95.1059 69.6311 102.355 59.4341 94.7319 49.1381C91.5309 44.8151 86.4049 42.2521 81.0259 42.3071C69.4979 42.3071 60.8079 53.7251 65.2409 64.7691C68.3319 72.6121 74.4149 81.3021 79.4859 88.0781C79.8929 88.6611 80.4869 89.5631 81.0699 90.2671ZM79.4639 50.1941C84.2599 49.2921 88.7479 52.4381 89.7049 57.1791C90.6619 61.9751 87.4059 66.5731 82.6649 67.5301C77.8689 68.4871 73.3809 65.2311 72.3689 60.4901C71.4119 55.6391 74.6679 51.1621 79.4639 50.1941ZM81.0699 56.3871C79.6839 56.3871 78.5619 57.5091 78.5619 58.8951C78.5619 60.2811 79.6839 61.3481 81.0699 61.3481C82.4009 61.3481 83.5229 60.2811 83.5229 58.8951C83.5229 57.5091 82.4009 56.3871 81.0699 56.3871Z" fill="#531A62"/>
<rect x="14.9727" y="47.0022" width="19.3783" height="6.16396" fill="#531A62"/>
</g>
<defs>
<clipPath id="clip0">
<rect width="110" height="110" fill="white" transform="translate(0.335938)"/>
</clipPath>
</defs>
</svg>
