<svg width="111" height="110" viewBox="0 0 111 110" fill="none" xmlns="http://www.w3.org/2000/svg">
<g clip-path="url(#clip0)">
<path d="M55.9631 50.0612C61.2541 50.0612 65.5661 53.6362 65.5661 58.0802C65.5661 62.4912 61.2541 66.0992 55.9631 66.0992C50.6281 66.0992 46.3161 62.4802 46.3161 58.0802C46.3161 53.6252 50.6281 50.0612 55.9631 50.0612ZM55.9631 72.5012C64.8181 72.5012 72.0121 66.0112 72.0121 58.0802C72.0121 50.1052 64.8291 43.6152 55.9631 43.6152C47.0971 43.6152 39.9141 50.1052 39.9141 58.0802C39.9141 66.0112 47.1081 72.5012 55.9631 72.5012Z" fill="#531A62"/>
<path d="M27.0788 25.9931H43.1278V32.3951H27.0788V25.9931ZM107.302 19.5361C105.542 19.5361 104.101 20.9771 104.101 22.7371V64.4711H91.2528V32.3841H88.0628C86.3028 32.3841 84.8618 33.8251 84.8618 35.5851V77.3191H7.82881V38.7861H75.2148C76.9748 38.7861 78.4158 37.3451 78.4158 35.5851V32.3841H49.5188V25.9821H94.4538C96.2578 25.9821 97.6548 24.5411 97.6548 22.7371V19.5361H20.6328V32.3841H1.38281V83.7211H91.2528V70.8731H110.503V19.5361H107.302Z" fill="#531A62"/>
</g>
<defs>
<clipPath id="clip0">
<rect width="110" height="110" fill="white" transform="translate(0.503906)"/>
</clipPath>
</defs>
</svg>
