<svg width="51" height="52" viewBox="0 0 51 52" fill="none" xmlns="http://www.w3.org/2000/svg">
<path d="M26 0.625C11.9871 0.625 0.625 11.9871 0.625 26C0.625 40.0129 11.9871 51.375 26 51.375C40.0129 51.375 51.375 40.0129 51.375 26C51.375 11.9871 40.0129 0.625 26 0.625ZM39.016 17.5152L23.2586 37.7359C23.134 37.8605 22.9301 38.1324 22.6809 38.1324C22.4203 38.1324 22.2504 37.9512 22.1031 37.8039C21.9559 37.6566 13.1652 29.2059 13.1652 29.2059L12.9953 29.0359C12.9273 28.934 12.8707 28.8094 12.8707 28.6734C12.8707 28.5375 12.9273 28.4129 12.9953 28.3109C13.0406 28.2656 13.0746 28.2316 13.1199 28.175C13.9922 27.2574 15.7594 25.3996 15.8727 25.2863C16.0199 25.1391 16.1445 24.9465 16.4164 24.9465C16.6996 24.9465 16.8809 25.1844 17.0168 25.3203C17.1527 25.4562 22.1145 30.2254 22.1145 30.2254L34.7227 14.0262C34.8359 13.9355 34.9719 13.8676 35.1191 13.8676C35.2664 13.8676 35.4023 13.9242 35.5156 14.0148L38.982 16.7449C39.0727 16.8582 39.1293 16.9941 39.1293 17.1414C39.1406 17.2887 39.084 17.4133 39.016 17.5152Z" fill="white"/>
</svg>
