<svg id="Layer_1" data-name="Layer 1" xmlns="http://www.w3.org/2000/svg" viewBox="0 0 26 26"><path d="M13,0A13,13,0,0,0,2.75,21H0v2H6V17H4v2.28A10.7,10.7,0,0,1,2,13,11,11,0,0,1,13,2a10.54,10.54,0,0,1,5,1.19V1A13.5,13.5,0,0,0,13,0Zm7,3V9h2V6.72A10.7,10.7,0,0,1,24,13,11,11,0,0,1,13,24a10.54,10.54,0,0,1-5-1.19V25a13.5,13.5,0,0,0,5,1A13,13,0,0,0,23.25,5H26V3ZM12,5V7a3.5,3.5,0,0,0,.5,7h1a1.5,1.5,0,0,1,0,3H10v2h2v2h2V19a3.5,3.5,0,0,0-.5-7h-1A1.44,1.44,0,0,1,11,10.5,1.45,1.45,0,0,1,12.5,9H16V7H14V5Z"/></svg>