<svg id="Layer_1" data-name="Layer 1" xmlns="http://www.w3.org/2000/svg" viewBox="0 0 27 34.5"><defs><style>.cls-1{fill:none;}</style></defs><path class="cls-1" d="M14.5,11A1.5,1.5,0,0,0,16,12.5h7.59L14.5,3.41Z"/><path class="cls-1" d="M16,14.5A3.5,3.5,0,0,1,12.5,11V2H4.75A2.77,2.77,0,0,0,2,4.75v25A2.77,2.77,0,0,0,4.75,32.5h17.5A2.77,2.77,0,0,0,25,29.75V14.5Z"/><path d="M26,12.06l-11-11a3.48,3.48,0,0,0-2.48-1H4.75A4.75,4.75,0,0,0,0,4.75v25A4.75,4.75,0,0,0,4.75,34.5h17.5A4.75,4.75,0,0,0,27,29.75V14.54A3.45,3.45,0,0,0,26,12.06Zm-2.38.44H16A1.5,1.5,0,0,1,14.5,11V3.41ZM25,29.75a2.77,2.77,0,0,1-2.75,2.75H4.75A2.77,2.77,0,0,1,2,29.75v-25A2.77,2.77,0,0,1,4.75,2H12.5v9A3.5,3.5,0,0,0,16,14.5h9V29.75Z"/></svg>