<svg id="Layer_1" data-name="Layer 1" xmlns="http://www.w3.org/2000/svg" viewBox="0 0 9.01 9.01"><path d="M5.56,4.5,8.79,1.29A.79.79,0,0,0,9,.75.75.75,0,0,0,8.79.22.77.77,0,0,0,8.25,0a.75.75,0,0,0-.53.22L4.5,3.45,1.29.22A.77.77,0,0,0,.75,0,.75.75,0,0,0,0,.75a.79.79,0,0,0,.22.54L3.45,4.5.22,7.72A.78.78,0,0,0,.06,8,.75.75,0,0,0,0,8.25a.72.72,0,0,0,.06.29.82.82,0,0,0,.16.25A.72.72,0,0,0,.47,9,.71.71,0,0,0,.75,9,.72.72,0,0,0,1,9a.82.82,0,0,0,.25-.16L4.5,5.56,7.72,8.79A.72.72,0,0,0,8,9,.71.71,0,0,0,8.25,9,.72.72,0,0,0,8.54,9,.69.69,0,0,0,9,8.54.72.72,0,0,0,9,8.25.75.75,0,0,0,9,8a.78.78,0,0,0-.16-.24Z"/></svg>