<svg id="Layer_1" data-name="Layer 1" xmlns="http://www.w3.org/2000/svg" viewBox="0 0 24 24"><defs><style>.cls-1{fill-rule:evenodd;}</style></defs><path class="cls-1" d="M0,2A2,2,0,0,1,2,0H4A2,2,0,0,1,6,2V4A2,2,0,0,1,4,6H2A2,2,0,0,1,0,4ZM9,2a2,2,0,0,1,2-2h2a2,2,0,0,1,2,2V4a2,2,0,0,1-2,2H11A2,2,0,0,1,9,4ZM20,0a2,2,0,0,0-2,2V4a2,2,0,0,0,2,2h2a2,2,0,0,0,2-2V2a2,2,0,0,0-2-2ZM0,11A2,2,0,0,1,2,9H4a2,2,0,0,1,2,2v2a2,2,0,0,1-2,2H2a2,2,0,0,1-2-2ZM11,9a2,2,0,0,0-2,2v2a2,2,0,0,0,2,2h2a2,2,0,0,0,2-2V11a2,2,0,0,0-2-2Zm7,2a2,2,0,0,1,2-2h2a2,2,0,0,1,2,2v2a2,2,0,0,1-2,2H20a2,2,0,0,1-2-2ZM2,18a2,2,0,0,0-2,2v2a2,2,0,0,0,2,2H4a2,2,0,0,0,2-2V20a2,2,0,0,0-2-2Zm7,2a2,2,0,0,1,2-2h2a2,2,0,0,1,2,2v2a2,2,0,0,1-2,2H11a2,2,0,0,1-2-2Zm11-2a2,2,0,0,0-2,2v2a2,2,0,0,0,2,2h2a2,2,0,0,0,2-2V20a2,2,0,0,0-2-2Z"/></svg>