<svg id="Layer_1" data-name="Layer 1" xmlns="http://www.w3.org/2000/svg" viewBox="0 0 12.86 16.38"><path d="M6.43,0A6.21,6.21,0,0,0,0,5.94a6.75,6.75,0,0,0,1,3,26.9,26.9,0,0,0,2,3.2c1.46,2,2.93,3.69,2.93,3.69l.49.57.5-.57s1.46-1.65,2.93-3.69a26.81,26.81,0,0,0,2-3.2,6.62,6.62,0,0,0,1-3A6.21,6.21,0,0,0,6.43,0Zm0,1.19a5,5,0,0,1,5.15,4.75,6.27,6.27,0,0,1-.84,2.46,27.51,27.51,0,0,1-2,3.07c-1.18,1.63-2,2.53-2.36,3-.37-.44-1.18-1.34-2.36-3A27.39,27.39,0,0,1,2.13,8.4a6.11,6.11,0,0,1-.84-2.46A5,5,0,0,1,6.43,1.19Zm0,3.56A1.23,1.23,0,0,0,5.15,5.94,1.24,1.24,0,0,0,6.43,7.13,1.25,1.25,0,0,0,7.72,5.94,1.24,1.24,0,0,0,6.43,4.75Z"/></svg>