<svg id="Layer_1" data-name="Layer 1" xmlns="http://www.w3.org/2000/svg" viewBox="0 0 21.51 21.51"><path d="M16.49,6.31A1.3,1.3,0,1,0,15.2,5,1.29,1.29,0,0,0,16.49,6.31Z"/><path d="M10.75,5.23a5.54,5.54,0,0,0-5.1,3.41,5.45,5.45,0,0,0-.31,3.19,5.51,5.51,0,0,0,4.34,4.34,5.45,5.45,0,0,0,3.19-.31A5.53,5.53,0,0,0,10.75,5.23Zm0,9.11a3.59,3.59,0,1,1,1.38-6.9,3.59,3.59,0,0,1,1.16,5.85A3.6,3.6,0,0,1,10.75,14.34Z"/><path d="M10.76,1.94c2.87,0,3.21,0,4.34.06a6,6,0,0,1,2,.37,3.57,3.57,0,0,1,2,2,6,6,0,0,1,.37,2c0,1.13.06,1.47.06,4.35s0,3.21-.06,4.34a6,6,0,0,1-.37,2,3.5,3.5,0,0,1-2,2,6,6,0,0,1-2,.37c-1.13,0-1.47.06-4.34.06s-3.22,0-4.35-.06a6,6,0,0,1-2-.37,3.57,3.57,0,0,1-2-2,6,6,0,0,1-.37-2C2,14,1.94,13.63,1.94,10.76S2,7.54,2,6.41a6,6,0,0,1,.37-2,3.65,3.65,0,0,1,2-2,6,6,0,0,1,2-.37C7.54,2,7.88,1.94,10.76,1.94Zm0-1.94C7.83,0,7.47,0,6.32.06a8.06,8.06,0,0,0-2.61.5A5.63,5.63,0,0,0,.56,3.71a8.06,8.06,0,0,0-.5,2.61C0,7.47,0,7.83,0,10.76S0,14,.06,15.19a8,8,0,0,0,.5,2.61,5.5,5.5,0,0,0,1.25,1.91A5.58,5.58,0,0,0,3.71,21a8.06,8.06,0,0,0,2.61.5c1.15.05,1.51.06,4.44.06s3.28,0,4.43-.06A8,8,0,0,0,17.8,21a5.53,5.53,0,0,0,1.91-1.24A5.62,5.62,0,0,0,21,17.8a8,8,0,0,0,.5-2.61c.05-1.15.06-1.51.06-4.43s0-3.29-.06-4.44A8.06,8.06,0,0,0,21,3.71a5.58,5.58,0,0,0-1.24-1.9A5.5,5.5,0,0,0,17.8.56,7.74,7.74,0,0,0,15.19.07C14,0,13.68,0,10.76,0Z"/></svg>