<svg id="Layer_1" data-name="Layer 1" xmlns="http://www.w3.org/2000/svg" viewBox="0 0 23.73 25"><path d="M11.24,0c-2,0-6.32.36-8.73,2.57C.71,4.35.09,7,0,10.23s-.13,9.32,5.73,11v2.52s0,1,.63,1.22c.82.26,1.29-.52,2.07-1.36L9.9,22a22.93,22.93,0,0,0,7.44-.55c.81-.26,5.4-.85,6.15-6.93.77-6.28-.38-10.24-2.44-12h0C20.41,1.86,17.91,0,12.32,0c0,0-.41,0-1.08,0Zm.07,1.77c.57,0,.91,0,.91,0,4.74,0,7,1.44,7.53,1.92,1.73,1.49,2.63,5.05,2,10.3-.62,5.09-4.34,5.41-5,5.63a21.09,21.09,0,0,1-6.4.54S7.75,23.24,7,24a.4.4,0,0,1-.36.16c-.14,0-.18-.2-.17-.43l0-4.18C1.47,18.2,1.76,13,1.82,10.3S2.39,5.38,3.9,3.87c2-1.84,5.7-2.09,7.41-2.1Zm.37,2.71-.12,0-.1.07a.36.36,0,0,0-.07.1.5.5,0,0,0,0,.12.31.31,0,0,0,.31.31A6,6,0,0,1,14,5.51a5.73,5.73,0,0,1,1.93,1.25,6,6,0,0,1,1.71,4.52.31.31,0,0,0,.31.31h0a.32.32,0,0,0,.23-.09.36.36,0,0,0,.09-.22,6.58,6.58,0,0,0-.44-2.67,6.71,6.71,0,0,0-1.45-2.29,6.42,6.42,0,0,0-4.65-1.83ZM7.57,5.2a.94.94,0,0,0-.64.12h0a4.68,4.68,0,0,0-1.19,1,1.86,1.86,0,0,0-.48,1,1.18,1.18,0,0,0,0,.56h0a13.89,13.89,0,0,0,1.25,2.71A15.66,15.66,0,0,0,9,13.87l0,.05.05,0,0,0,0,0a16.4,16.4,0,0,0,3.31,2.43,15.71,15.71,0,0,0,2.71,1.25h0a1.28,1.28,0,0,0,.42.07,1.92,1.92,0,0,0,1.15-.49,4.83,4.83,0,0,0,1-1.2h0a.88.88,0,0,0-.18-1.16,14.58,14.58,0,0,0-2.24-1.61,1,1,0,0,0-1.3.18l-.46.59a.86.86,0,0,1-.68.25h0A6.12,6.12,0,0,1,8.67,10.2a.84.84,0,0,1,.26-.68l.59-.47a1,1,0,0,0,.17-1.3,14.23,14.23,0,0,0-1.6-2.24.87.87,0,0,0-.53-.32Zm4.65.92a.32.32,0,0,0,0,.63A3.87,3.87,0,0,1,15,8a3.89,3.89,0,0,1,.74,1.24,3.67,3.67,0,0,1,.19,1.43.3.3,0,0,0,.1.22.28.28,0,0,0,.22.09v0a.31.31,0,0,0,.31-.31,4.35,4.35,0,0,0-1.11-3.12,4.56,4.56,0,0,0-3.18-1.4Zm.52,1.69a.32.32,0,1,0,0,.64,1.5,1.5,0,0,1,1.59,1.64.31.31,0,0,0,.31.31h0l.12,0a.27.27,0,0,0,.1-.08.36.36,0,0,0,.07-.1.29.29,0,0,0,0-.13,2.12,2.12,0,0,0-2.18-2.25Z"/></svg>