<svg id="Layer_1" data-name="Layer 1" xmlns="http://www.w3.org/2000/svg" viewBox="0 0 25 23.9"><defs><style>.cls-1{fill-rule:evenodd;}</style></defs><path class="cls-1" d="M21.88,1.56H3.13A1.57,1.57,0,0,0,1.56,3.13v18.1L4.69,18.1a3.13,3.13,0,0,1,2.21-.91h15a1.57,1.57,0,0,0,1.56-1.56V3.13a1.57,1.57,0,0,0-1.56-1.57ZM3.13,0A3.14,3.14,0,0,0,0,3.13v20a.84.84,0,0,0,.13.44.82.82,0,0,0,.35.29.87.87,0,0,0,.45,0,.71.71,0,0,0,.4-.21l4.46-4.46a1.55,1.55,0,0,1,1.11-.46h15A3.14,3.14,0,0,0,25,15.63V3.13A3.14,3.14,0,0,0,21.88,0Z"/><path class="cls-1" d="M4.69,5.47a.79.79,0,0,1,.78-.78H19.53a.79.79,0,0,1,.78.78.76.76,0,0,1-.23.55.75.75,0,0,1-.55.23H5.47A.75.75,0,0,1,4.92,6,.76.76,0,0,1,4.69,5.47Zm0,3.91a.79.79,0,0,1,.78-.79H19.53a.79.79,0,0,1,0,1.57H5.47a.79.79,0,0,1-.78-.78Zm0,3.9a.76.76,0,0,1,.23-.55.75.75,0,0,1,.55-.23h7.81a.75.75,0,0,1,.55.23.76.76,0,0,1,.23.55.79.79,0,0,1-.78.78H5.47a.79.79,0,0,1-.78-.78Z"/></svg>