<svg id="Layer_1" data-name="Layer 1" xmlns="http://www.w3.org/2000/svg" viewBox="0 0 51 52"><defs><style>.cls-1{fill:#94c22b;}</style></defs><path class="cls-1" d="M25.38.63A25.38,25.38,0,1,0,50.75,26,25.37,25.37,0,0,0,25.38.63Zm13,16.89L22.63,37.74c-.12.12-.32.39-.57.39a.84.84,0,0,1-.58-.33l-8.94-8.59L12.37,29a.68.68,0,0,1-.12-.37.65.65,0,0,1,.12-.36.55.55,0,0,0,.12-.14c.88-.91,2.64-2.77,2.76-2.88s.27-.34.54-.34a.87.87,0,0,1,.6.37l5.1,4.91L34.1,14a.64.64,0,0,1,.39-.16.63.63,0,0,1,.4.14l3.47,2.73a.65.65,0,0,1,.14.4A.55.55,0,0,1,38.39,17.52Z"/></svg>