<svg id="Layer_1" data-name="Layer 1" xmlns="http://www.w3.org/2000/svg" viewBox="0 0 21 12"><path d="M18.72,8.28a9.32,9.32,0,0,1,2.09,2.42c.69,1.16-.76,1.25-.76,1.25l-2.81,0a2,2,0,0,1-1.39-.43C14.79,10.84,13.78,9,13,9.21s-.75,1.94-.75,1.94a.65.65,0,0,1-.18.42.71.71,0,0,1-.58.14H10.27a6.79,6.79,0,0,1-5.2-2.26c-2.66-2.77-5-8.22-5-8.22S-.08.9.07.72.69.54.69.54h3a.78.78,0,0,1,.48.18,1,1,0,0,1,.26.37A19.47,19.47,0,0,0,5.56,3.41C6.81,5.58,7.39,6.05,7.79,5.82c.66-.34.47-3.06.47-3.06a3,3,0,0,0-.32-1.43A1.38,1.38,0,0,0,7,.86c-.18,0,.11-.41.47-.6A7.17,7.17,0,0,1,10.1,0a5.6,5.6,0,0,1,1.47.14c1,.25.68,1.22.68,3.53,0,.75-.1,1.78.41,2.14.23.15.79,0,2.21-2.37A19.24,19.24,0,0,0,16,1a1,1,0,0,1,.27-.34,1.09,1.09,0,0,1,.42-.09h3.15s1-.1,1.11.32-.36,1.51-1.65,3.22C17.21,6.91,17,6.65,18.72,8.28Z"/></svg>