<svg id="Layer_1" data-name="Layer 1" xmlns="http://www.w3.org/2000/svg" xmlns:xlink="http://www.w3.org/1999/xlink" viewBox="0 0 24 24"><defs><style>.cls-1{fill:none;}.cls-2{clip-path:url(#clip-path);}</style><clipPath id="clip-path"><rect class="cls-1" width="24" height="24"/></clipPath></defs><g class="cls-2"><path d="M22.26,11.63c-.05-.22-.12-.44-.19-.65L24,8.33l-.32-.43a8.74,8.74,0,0,0-1.4-1.45,8.12,8.12,0,0,0-5.05-1.78H15.64V4a2.18,2.18,0,0,0-2.12-2.24A2.14,2.14,0,0,0,12,2.32,2.18,2.18,0,0,0,8.36,4v.72H6.77a8.12,8.12,0,0,0-5,1.78A8.74,8.74,0,0,0,.32,7.9L0,8.33,1.93,11c-.07.21-.14.43-.19.65L.78,16a5.17,5.17,0,0,0,4,6.15,4.7,4.7,0,0,0,1,.12h12.4a5.17,5.17,0,0,0,5.12-5.22A5.28,5.28,0,0,0,23.18,16Zm-8.8-8.41a.73.73,0,0,1,.72.73v.72H12.73V4h0a.73.73,0,0,1,.66-.78ZM9.82,4a.73.73,0,0,1,1.45,0h0v.72H9.82Zm-8,4.41a6,6,0,0,1,.82-.77A6.61,6.61,0,0,1,6.77,6.13H17.23a6.61,6.61,0,0,1,4.13,1.46,6,6,0,0,1,.82.77l-.89,1.22a4.56,4.56,0,0,0-.84-.86,5.15,5.15,0,0,0-3.22-1.13H6.77A5.15,5.15,0,0,0,3.55,8.72a4.56,4.56,0,0,0-.84.86Zm19.25,11a3.69,3.69,0,0,1-2.89,1.38H5.82a3.68,3.68,0,0,1-3.7-3.66,3.84,3.84,0,0,1,.09-.83l1-4.35A3.72,3.72,0,0,1,6.77,9H17.23a3.72,3.72,0,0,1,3.61,2.9l.95,4.35a3.69,3.69,0,0,1-.72,3.15Z"/></g></svg>