<svg id="Layer_1" data-name="Layer 1" xmlns="http://www.w3.org/2000/svg" viewBox="0 0 20.28 20.38"><defs><style>.cls-1{fill-rule:evenodd;}</style></defs><path class="cls-1" d="M17.33,3A9.94,9.94,0,0,0,14.05.77,10.1,10.1,0,0,0,1.43,15.15L0,20.38,5.35,19a10.28,10.28,0,0,0,4.83,1.23h0a10.12,10.12,0,0,0,10.1-10.1,9.86,9.86,0,0,0-.76-3.87A10.09,10.09,0,0,0,17.33,3ZM10.18,18.5h0a8.34,8.34,0,0,1-4.27-1.17l-.31-.18L2.43,18l.84-3.1-.2-.31A8.4,8.4,0,0,1,10.19,1.71a8.24,8.24,0,0,1,3.21.63,8.11,8.11,0,0,1,2.72,1.83A8.39,8.39,0,0,1,10.18,18.5Zm4.61-6.29c-.25-.12-1.49-.73-1.73-.82s-.39-.12-.56.13-.65.82-.8,1-.3.19-.55.06a7.06,7.06,0,0,1-2-1.25,7.43,7.43,0,0,1-1.4-1.75c-.15-.25,0-.39.11-.52s.25-.29.38-.44a2.22,2.22,0,0,0,.25-.42.48.48,0,0,0,0-.44c-.07-.13-.57-1.37-.78-1.88s-.41-.42-.57-.43H6.61a1.18,1.18,0,0,0-.37.09.86.86,0,0,0-.3.23,2.78,2.78,0,0,0-.89,2.1,5,5,0,0,0,1,2.62,11.42,11.42,0,0,0,4.31,3.81c.61.26,1.08.41,1.44.53a3.57,3.57,0,0,0,1.59.1,2.59,2.59,0,0,0,1.71-1.2,2,2,0,0,0,.14-1.2C15.21,12.4,15,12.34,14.79,12.21Z"/></svg>