<svg id="Layer_1" data-name="Layer 1" xmlns="http://www.w3.org/2000/svg" viewBox="0 0 21 30"><defs><style>.cls-1{fill:#94c22b;}</style></defs><path class="cls-1" d="M14.44,14.87A7.91,7.91,0,0,0,18.6,7.94,8,8,0,0,0,10.5,0,8,8,0,0,0,2.4,7.94a7.91,7.91,0,0,0,4.16,6.93A10.32,10.32,0,0,0,0,24.41v2.36A3.27,3.27,0,0,0,3.3,30H17.7A3.27,3.27,0,0,0,21,26.77V24.41A10.32,10.32,0,0,0,14.44,14.87ZM9.6,20.06,6.8,16.69a8.74,8.74,0,0,1,2.8-.77Zm1.8-4.14a8.74,8.74,0,0,1,2.8.77l-2.8,3.37Zm-7.21-8A6.25,6.25,0,0,1,10.5,1.76a6.25,6.25,0,0,1,6.31,6.18,6.25,6.25,0,0,1-6.31,6.18A6.25,6.25,0,0,1,4.19,7.94ZM1.79,26.77V24.41a8.47,8.47,0,0,1,3.46-6.8L9.6,22.84v5.4H3.3A1.49,1.49,0,0,1,1.79,26.77Zm17.42,0a1.49,1.49,0,0,1-1.51,1.47H11.4v-5.4l4.35-5.23a8.47,8.47,0,0,1,3.46,6.8Z"/></svg>