<svg id="Layer_1" data-name="Layer 1" xmlns="http://www.w3.org/2000/svg" viewBox="0 0 30 30"><defs><style>.cls-1{fill:#94c22b;}</style></defs><path class="cls-1" d="M26.13,30H3.87A3.87,3.87,0,0,1,0,26.13V3.87A3.87,3.87,0,0,1,3.87,0H26.13A3.87,3.87,0,0,1,30,3.87V26.13A3.87,3.87,0,0,1,26.13,30ZM3.87,1.88a2,2,0,0,0-2,2V26.13a2,2,0,0,0,2,2H26.13a2,2,0,0,0,2-2V3.87a2,2,0,0,0-2-2Z"/><path class="cls-1" d="M22.73,24.84H7.27a2.1,2.1,0,0,1-2.11-2.11V7.27A2.1,2.1,0,0,1,7.27,5.16H22.73a2.1,2.1,0,0,1,2.11,2.11V22.73A2.1,2.1,0,0,1,22.73,24.84ZM7.27,7A.24.24,0,0,0,7,7.27V22.73a.24.24,0,0,0,.24.24H22.73a.24.24,0,0,0,.24-.24V7.27A.24.24,0,0,0,22.73,7Z"/><path class="cls-1" d="M19.22,16.41A1.41,1.41,0,1,1,20.63,15,1.41,1.41,0,0,1,19.22,16.41Z"/></svg>