<svg width="21" height="21" viewBox="0 0 21 21" fill="none" xmlns="http://www.w3.org/2000/svg">
<path d="M19.9138 9.41292H19.9128C19.7702 9.41304 19.6289 9.44125 19.4972 9.49595C19.3654 9.55064 19.2457 9.63075 19.145 9.73169C19.0442 9.83263 18.9643 9.95244 18.9098 10.0843C18.8553 10.2161 18.8273 10.3573 18.8275 10.5C18.8261 12.0227 18.4073 13.5158 17.6167 14.8172C16.826 16.1186 15.6937 17.1784 14.3428 17.8813C12.992 18.5843 11.4742 18.9036 9.95459 18.8045C8.43494 18.7054 6.97153 18.1917 5.72343 17.3193C1.96231 14.686 1.04493 9.48411 3.67853 5.72342C6.31213 1.96273 11.5147 1.04538 15.2759 3.67873C15.8449 4.07607 16.362 4.54294 16.8152 5.0685H13.7584C13.4703 5.0685 13.194 5.18292 12.9903 5.38661C12.7866 5.59029 12.6721 5.86655 12.6721 6.1546C12.6721 6.44266 12.7866 6.71891 12.9903 6.9226C13.194 7.12628 13.4703 7.24071 13.7584 7.24071H18.8275C19.1156 7.24071 19.3919 7.12628 19.5956 6.9226C19.7993 6.71891 19.9138 6.44266 19.9138 6.1546V1.08611C19.9138 0.798053 19.7993 0.521798 19.5956 0.318113C19.3919 0.114429 19.1156 0 18.8275 0C18.5394 0 18.2631 0.114429 18.0594 0.318113C17.8557 0.521798 17.7413 0.798053 17.7413 1.08611V2.89479C17.3601 2.53316 16.9525 2.20038 16.522 1.89919C15.3925 1.10843 14.1183 0.547856 12.7722 0.249467C11.426 -0.0489223 10.0343 -0.0792802 8.67638 0.160127C7.3185 0.399534 6.02107 0.904017 4.85818 1.64477C3.69529 2.38553 2.68971 3.34805 1.89885 4.47738C0.30164 6.75817 -0.324 9.57995 0.159566 12.322C0.643131 15.064 2.19629 17.5016 4.47737 19.0986C6.23362 20.3355 8.3292 20.9996 10.4774 21C11.0961 20.9997 11.7136 20.9454 12.3229 20.8378C14.754 20.4089 16.9563 19.1375 18.5431 17.2466C20.1299 15.3558 20.9998 12.9664 21 10.4981C20.9997 10.2102 20.8852 9.93419 20.6815 9.73071C20.4779 9.52724 20.2017 9.41293 19.9138 9.41292Z" fill="white"/>
</svg>
