<svg width="58" height="58" viewBox="0 0 58 58" fill="none" xmlns="http://www.w3.org/2000/svg">
<g clip-path="url(#clip0)">
<path d="M34.1026 32.6076C42.536 32.6076 49.3971 25.7464 49.3971 17.3131C49.3971 8.87775 42.5513 1.90527 34.1026 1.90527C25.6662 1.90527 18.8081 8.86438 18.8081 17.3131C18.8081 25.7464 25.6691 32.6076 34.1026 32.6076ZM45.9983 17.3131C45.9983 23.2955 41.5592 28.2597 35.802 29.0869V25.5179C37.78 24.8164 39.2009 22.9275 39.2009 20.7121C39.2009 17.9009 36.9138 15.6139 34.1027 15.6139C33.1657 15.6139 32.4033 14.8516 32.4033 13.9145C32.4033 12.9775 33.1657 12.2151 34.1027 12.2151C35.0398 12.2151 35.8021 12.9774 35.8021 13.9144H39.2009C39.2009 11.699 37.78 9.81015 35.802 9.10864V5.42709C41.5591 6.26217 45.9983 11.2737 45.9983 17.3131ZM32.4032 5.42709V9.10864C30.4253 9.81015 29.0044 11.6991 29.0044 13.9144C29.0044 16.7255 31.2915 19.0126 34.1026 19.0126C35.0396 19.0126 35.802 19.7749 35.802 20.7119C35.802 21.649 35.0396 22.4113 34.1026 22.4113C33.1656 22.4113 32.4032 21.649 32.4032 20.7119H29.0044C29.0044 22.9273 30.4252 24.8162 32.4032 25.5178V29.0869C26.6461 28.2597 22.2069 23.2955 22.2069 17.3131C22.2069 11.2737 26.646 6.26217 32.4032 5.42709Z" fill="#6C2F7C"/>
<path d="M12.7695 55.2093C14.6139 53.826 17.189 53.0001 19.6577 53.0001H34.8651L58 39.5971L57.1593 38.1296C54.8175 34.0424 49.669 32.5376 45.5953 34.8715L37.5013 39.6899V36.0061H18.2248C11.7697 36.0061 6.04234 38.4606 1.20158 43.3014L0 44.5031L11.5904 56.0936L12.7695 55.2093ZM18.2248 39.405H34.1024V42.8038H22.2067V46.2025H37.5012V43.6454L47.296 37.8141C49.2458 36.7035 51.5748 37.0922 53.1349 38.4877L33.9516 49.6013H19.6577C16.9507 49.6013 14.2239 50.3429 11.97 51.6665L4.84631 44.5428C8.74822 41.1322 13.2414 39.405 18.2248 39.405Z" fill="#6C2F7C"/>
</g>
<defs>
<clipPath id="clip0">
<rect width="58" height="58" fill="white"/>
</clipPath>
</defs>
</svg>
