<svg width="59" height="59" viewBox="0 0 59 59" fill="none" xmlns="http://www.w3.org/2000/svg">
<g clip-path="url(#clip0)">
<path d="M58.4914 29.1976C55.5653 26.2716 55.4896 26.261 55.1192 26.0862C54.5524 25.8165 53.8393 25.8678 53.3013 26.2955C53.1826 26.3902 53.2575 26.3225 50.3823 29.1977C49.7057 29.8742 49.7057 30.9712 50.3823 31.6477C50.9867 32.252 51.9257 32.3148 52.6016 31.8395C51.5219 42.7349 42.7196 51.8083 31.2212 52.6503C30.2669 52.72 29.5501 53.5503 29.6199 54.5047C29.6896 55.4558 30.5169 56.1761 31.4743 56.1059C44.7158 55.1363 55.009 44.6165 56.0849 31.7866C56.3973 32.0314 56.8895 32.1551 57.2667 32.1551C58.7961 32.1551 59.5859 30.2919 58.4914 29.1976Z" fill="#6C2F7C"/>
<path d="M27.7778 6.34794C28.732 6.27807 29.4489 5.44789 29.379 4.49356C29.3091 3.53935 28.4794 2.8219 27.5246 2.89235C14.2739 3.86285 3.98961 14.3919 2.91459 27.2117C2.2349 26.6791 1.13389 26.7245 0.507913 27.3506C-0.168653 28.0271 -0.168653 29.124 0.507913 29.8006C3.74753 33.0402 3.33568 32.5144 3.43258 32.6062C4.14102 33.2721 5.20657 33.2113 5.84526 32.5725L8.61713 29.8006C9.29369 29.1241 9.29369 28.0272 8.61713 27.3506C8.01286 26.7463 7.07377 26.6835 6.39778 27.1589C7.47743 16.2638 16.2795 7.19013 27.7778 6.34794Z" fill="#6C2F7C"/>
<path d="M46.0153 29.5C46.0153 20.3931 38.6065 12.9843 29.4996 12.9843C20.3927 12.9843 12.9839 20.3931 12.9839 29.5C12.9839 38.6068 20.3927 46.0157 29.4996 46.0157C38.6065 46.0157 46.0153 38.6067 46.0153 29.5ZM29.4996 42.5508C22.3033 42.5508 16.4487 36.6963 16.4487 29.5C16.4487 22.3036 22.3033 16.4491 29.4996 16.4491C36.6959 16.4491 42.5505 22.3036 42.5505 29.5C42.5505 36.6963 36.6959 42.5508 29.4996 42.5508Z" fill="#6C2F7C"/>
<path d="M31.4563 27.7957C30.352 27.4054 29.135 26.9371 28.4817 26.4246C28.4387 26.3909 28.3585 26.1892 28.4148 25.8901C28.4418 25.7467 28.5657 25.2685 29.027 25.1295C30.1824 24.7816 30.7161 25.2266 30.8128 25.3209C31.4837 26.0019 32.5796 26.0108 33.2615 25.3402C33.9437 24.6693 33.9528 23.5724 33.2819 22.8903C32.8097 22.4101 32.1221 21.9745 31.2686 21.7334V21.6374C31.2686 20.6807 30.493 19.905 29.5362 19.905C28.5795 19.905 27.8038 20.6807 27.8038 21.6374V21.8883C24.6822 23.0226 23.964 27.2849 26.3433 29.1511C27.3881 29.9706 28.8631 30.5541 30.3015 31.0626C31.1601 31.366 31.2475 31.9817 31.1697 32.4446C31.083 32.9603 30.6389 33.8352 29.5243 33.8426C28.3699 33.8505 28.0962 33.8074 27.2518 33.255C26.451 32.7313 25.3774 32.9557 24.8536 33.7564C24.3299 34.5571 24.5544 35.6308 25.355 36.1545C26.2763 36.7572 27.0056 37.0558 27.8037 37.1959V37.3621C27.8037 38.3189 28.5794 39.0945 29.5361 39.0945C30.4929 39.0945 31.2685 38.3189 31.2685 37.3621V37.0001C35.4662 35.4825 36.0224 29.4096 31.4563 27.7957Z" fill="#6C2F7C"/>
</g>
<defs>
<clipPath id="clip0">
<rect width="59" height="59" fill="white"/>
</clipPath>
</defs>
</svg>
