<svg width="138" height="147" viewBox="0 0 138 147" fill="none" xmlns="http://www.w3.org/2000/svg">
<path d="M134.328 3.67061L134.332 3.67366C134.86 4.20245 135.28 4.83083 135.566 5.52297C135.853 6.21512 136 6.95729 136 7.70695C136 8.4566 135.853 9.19878 135.566 9.89093C135.28 10.5831 134.86 11.2115 134.332 11.7402L134.33 11.7418L11.6929 134.693L11.6914 134.695C10.8972 135.493 9.88538 136.036 8.78426 136.256C7.68319 136.476 6.54167 136.363 5.50416 135.932C4.46659 135.501 3.57922 134.77 2.95508 133.832C2.332 132.895 1.99948 131.794 2 130.667C2.01302 129.151 2.6107 127.699 3.66634 126.616C3.66843 126.613 3.67053 126.611 3.67263 126.609L126.295 3.67214L126.297 3.67062C126.824 3.14071 127.451 2.72057 128.14 2.434C128.829 2.14744 129.567 2 130.313 2C131.058 2 131.797 2.14744 132.486 2.434C133.175 2.72057 133.801 3.14071 134.328 3.67061ZM50.1539 53.7745C45.519 56.8794 40.0704 58.5363 34.4971 58.5363C27.0236 58.5363 19.8552 55.5599 14.5691 50.2602C9.28286 44.9604 6.31214 37.7713 6.31214 30.274C6.31214 24.6831 7.96582 19.2182 11.0635 14.5703C14.1611 9.92253 18.5633 6.3008 23.7129 4.16232C28.8623 2.02387 34.5284 1.46443 39.9947 2.55454C45.4611 3.64465 50.483 6.33553 54.4251 10.2877C58.3672 14.2399 61.0524 19.276 62.1403 24.7593C63.2282 30.2427 62.6698 35.9263 60.5359 41.0912C58.402 46.256 54.7888 50.6696 50.1539 53.7745ZM42.7973 17.8286C40.3409 16.183 37.4524 15.3044 34.4971 15.3044C30.5341 15.3044 26.7344 16.8828 23.9336 19.6907C21.1331 22.4984 19.5607 26.3055 19.5607 30.274C19.5607 33.2335 20.436 36.127 22.0766 38.5886C23.7172 41.0503 26.0497 42.9697 28.7795 44.1033C31.5094 45.237 34.5136 45.5337 37.412 44.9557C40.3104 44.3777 42.972 42.9512 45.0605 40.8572C47.149 38.7634 48.5708 36.0963 49.1467 33.1934C49.7226 30.2906 49.4271 27.2817 48.2972 24.547C47.1674 21.8123 45.2536 19.474 42.7973 17.8286ZM87.8345 93.2371C92.4694 90.1323 97.918 88.4754 103.491 88.4754C110.965 88.4754 118.133 91.4518 123.419 96.7514C128.706 102.051 131.676 109.24 131.676 116.738C131.676 122.329 130.023 127.794 126.925 132.441C123.827 137.089 119.425 140.711 114.276 142.849C109.126 144.988 103.46 145.547 97.9936 144.457C92.5272 143.367 87.5054 140.676 83.5633 136.724C79.6212 132.772 76.936 127.736 75.8481 122.252C74.7601 116.769 75.3186 111.085 77.4525 105.921C79.5863 100.756 83.1996 96.342 87.8345 93.2371ZM95.1911 129.183C97.6475 130.829 100.536 131.707 103.491 131.707C107.454 131.707 111.254 130.129 114.055 127.321C116.855 124.513 118.428 120.706 118.428 116.738C118.428 113.778 117.552 110.885 115.912 108.423C114.271 105.961 111.939 104.042 109.209 102.908C106.479 101.775 103.475 101.478 100.576 102.056C97.678 102.634 95.0164 104.061 92.9278 106.154C90.8393 108.248 89.4176 110.915 88.8417 113.818C88.2657 116.721 88.5613 119.73 89.6911 122.465C90.821 125.199 92.7347 127.538 95.1911 129.183Z" stroke="#94C22B" stroke-width="4"/>
<path d="M134.328 3.67061L134.332 3.67366C134.86 4.20245 135.28 4.83083 135.566 5.52297C135.853 6.21512 136 6.95729 136 7.70695C136 8.4566 135.853 9.19878 135.566 9.89093C135.28 10.5831 134.86 11.2115 134.332 11.7402L134.33 11.7418L11.6929 134.693L11.6914 134.695C10.8972 135.493 9.88538 136.036 8.78426 136.256C7.68319 136.476 6.54167 136.363 5.50416 135.932C4.46659 135.501 3.57922 134.77 2.95508 133.832C2.332 132.895 1.99948 131.794 2 130.667C2.01302 129.151 2.6107 127.699 3.66634 126.616C3.66843 126.613 3.67053 126.611 3.67263 126.609L126.295 3.67214L126.297 3.67062C126.824 3.14071 127.451 2.72057 128.14 2.434C128.829 2.14744 129.567 2 130.313 2C131.058 2 131.797 2.14744 132.486 2.434C133.175 2.72057 133.801 3.14071 134.328 3.67061ZM50.1539 53.7745C45.519 56.8794 40.0704 58.5363 34.4971 58.5363C27.0236 58.5363 19.8552 55.5599 14.5691 50.2602C9.28286 44.9604 6.31214 37.7713 6.31214 30.274C6.31214 24.6831 7.96582 19.2182 11.0635 14.5703C14.1611 9.92253 18.5633 6.3008 23.7129 4.16232C28.8623 2.02387 34.5284 1.46443 39.9947 2.55454C45.4611 3.64465 50.483 6.33553 54.4251 10.2877C58.3672 14.2399 61.0524 19.276 62.1403 24.7593C63.2282 30.2427 62.6698 35.9263 60.5359 41.0912C58.402 46.256 54.7888 50.6696 50.1539 53.7745ZM42.7973 17.8286C40.3409 16.183 37.4524 15.3044 34.4971 15.3044C30.5341 15.3044 26.7344 16.8828 23.9336 19.6907C21.1331 22.4984 19.5607 26.3055 19.5607 30.274C19.5607 33.2335 20.436 36.127 22.0766 38.5886C23.7172 41.0503 26.0497 42.9697 28.7795 44.1033C31.5094 45.237 34.5136 45.5337 37.412 44.9557C40.3104 44.3777 42.972 42.9512 45.0605 40.8572C47.149 38.7634 48.5708 36.0963 49.1467 33.1934C49.7226 30.2906 49.4271 27.2817 48.2972 24.547C47.1674 21.8123 45.2536 19.474 42.7973 17.8286ZM87.8345 93.2371C92.4694 90.1323 97.918 88.4754 103.491 88.4754C110.965 88.4754 118.133 91.4518 123.419 96.7514C128.706 102.051 131.676 109.24 131.676 116.738C131.676 122.329 130.023 127.794 126.925 132.441C123.827 137.089 119.425 140.711 114.276 142.849C109.126 144.988 103.46 145.547 97.9936 144.457C92.5272 143.367 87.5054 140.676 83.5633 136.724C79.6212 132.772 76.936 127.736 75.8481 122.252C74.7601 116.769 75.3186 111.085 77.4525 105.921C79.5863 100.756 83.1996 96.342 87.8345 93.2371ZM95.1911 129.183C97.6475 130.829 100.536 131.707 103.491 131.707C107.454 131.707 111.254 130.129 114.055 127.321C116.855 124.513 118.428 120.706 118.428 116.738C118.428 113.778 117.552 110.885 115.912 108.423C114.271 105.961 111.939 104.042 109.209 102.908C106.479 101.775 103.475 101.478 100.576 102.056C97.678 102.634 95.0164 104.061 92.9278 106.154C90.8393 108.248 89.4176 110.915 88.8417 113.818C88.2657 116.721 88.5613 119.73 89.6911 122.465C90.821 125.199 92.7347 127.538 95.1911 129.183Z" stroke="url(#paint0_linear)" stroke-width="4"/>
<defs>
<linearGradient id="paint0_linear" x1="69" y1="0" x2="69" y2="147" gradientUnits="userSpaceOnUse">
<stop stop-color="#8FC418"/>
<stop offset="1" stop-color="#C9EE73"/>
</linearGradient>
</defs>
</svg>
