<svg width="58" height="56" viewBox="0 0 58 56" fill="none" xmlns="http://www.w3.org/2000/svg">
<path d="M57.9171 53.074L53.2058 33.8146C52.9791 32.888 52.3228 32.2594 51.5818 32.2594H43.8901L39.5592 14.5552C39.3325 13.6286 38.6762 13 37.9352 13H20.0647C19.3237 13 18.6674 13.6284 18.4407 14.5552L14.1098 32.2594H6.41809C5.67706 32.2594 5.02075 32.8878 4.79409 33.8146L0.0827826 53.074C-0.270221 54.517 0.54974 56 1.70678 56H56.2931C57.4471 56 58.271 54.5209 57.9171 53.074ZM21.3083 17.4812H36.6916L40.3067 32.2594C39.0548 32.2594 18.95 32.2594 17.6933 32.2594L21.3083 17.4812ZM28.9999 46.435L26.6284 36.7405H31.3714L28.9999 46.435ZM4.04669 51.5188L7.66179 36.7406H23.0451L26.6602 51.5188H4.04669ZM31.3398 51.5188L34.9549 36.7406H50.3382L53.9533 51.5188H31.3398Z" fill="#6C2F7C"/>
<path d="M49.1686 17.2354L53.0506 14.2077C53.8328 13.5977 54.0411 12.3666 53.5159 11.4582C52.9909 10.5496 51.931 10.3077 51.1489 10.9176L47.2669 13.9453C46.4847 14.5553 46.2763 15.7864 46.8015 16.6948C47.3268 17.6038 48.3868 17.8453 49.1686 17.2354Z" fill="#6C2F7C"/>
<path d="M4.95828 14.2078L8.84027 17.2354C9.62224 17.8455 10.6822 17.6035 11.2073 16.6949C11.7325 15.7864 11.5242 14.5554 10.742 13.9453L6.85999 10.9177C6.07802 10.3076 5.0181 10.5496 4.49292 11.4582C3.96774 12.3668 4.17609 13.5979 4.95828 14.2078Z" fill="#6C2F7C"/>
<path d="M28.9987 8.42491C29.9408 8.42491 30.7045 7.53772 30.7045 6.44352V1.98139C30.7045 0.887063 29.9407 0 28.9987 0C28.0567 0 27.293 0.887063 27.293 1.98139V6.44352C27.293 7.53772 28.0567 8.42491 28.9987 8.42491Z" fill="#6C2F7C"/>
</svg>
