<svg id="Layer_1" data-name="Layer 1" xmlns="http://www.w3.org/2000/svg" viewBox="0 0 48.94 58"><defs><style>.cls-1{fill:#6c2f7c;}</style></defs><path class="cls-1" d="M47.54,9.39,25.34.17a2.28,2.28,0,0,0-1.74,0L1.4,9.39A2.26,2.26,0,0,0,0,11.48V22.69A38,38,0,0,0,23.61,57.83a2.21,2.21,0,0,0,1.71,0A37.94,37.94,0,0,0,48.94,22.69V11.48A2.26,2.26,0,0,0,47.54,9.39Zm-3.13,13.3A33.42,33.42,0,0,1,24.47,53.27,33.41,33.41,0,0,1,4.53,22.69V13L24.47,4.72,44.41,13ZM22,30.33l9.74-9.74a2.27,2.27,0,1,1,3.21,3.2L23.57,35.13a2.26,2.26,0,0,1-3.21,0L14,28.8a2.26,2.26,0,0,1,3.2-3.2Z"/></svg>