<svg id="Layer_1" data-name="Layer 1" xmlns="http://www.w3.org/2000/svg" xmlns:xlink="http://www.w3.org/1999/xlink" viewBox="0 0 31 32.97"><defs><style>.cls-1{fill:#ef4058;}.cls-2{fill:#1466ac;}.cls-3{fill:url(#linear-gradient);}</style><linearGradient id="linear-gradient" x1="16.03" y1="34" x2="16.03" y2="1.03" gradientTransform="matrix(1, 0, 0, -1, 0, 34)" gradientUnits="userSpaceOnUse"><stop offset="0.4" stop-color="#1466ac"/><stop offset="0.66" stop-color="#ef4058"/></linearGradient></defs><path class="cls-1" d="M12.72,16.79H9.57a.05.05,0,0,0-.06,0,17.05,17.05,0,0,1-.74,4.08.06.06,0,0,0,0,.05H9.91s.05,0,.05,0a16.34,16.34,0,0,0,.64-3.17h1v3.16a.06.06,0,0,0,.06.06h1s.07,0,.07-.06v-4.1S12.75,16.79,12.72,16.79Zm13.32,0H25s-.07,0-.07.06V20a2.63,2.63,0,0,1-.7.09c-.68,0-.84-.2-.84-1.07V16.85a.06.06,0,0,0-.06-.06h-1a.07.07,0,0,0-.07.06v2.29c0,1.43.5,2,1.77,2a6.4,6.4,0,0,0,2-.36.05.05,0,0,0,0,0V16.85C26.1,16.8,26.07,16.79,26,16.79Zm-21.78,0h-1s0,0,0,0a23.33,23.33,0,0,1-.94,2.79L1.17,16.83a.09.09,0,0,0,0,0H.06l0,0s0,0,0,.05l1.57,4.17c-.16.33-.31.59-.45.84s-.21.37-.3.56c0,0,0,0,0,.05l0,0H2s0,0,0,0c.19-.36.44-.86.66-1.37a38.21,38.21,0,0,0,1.61-4.26s0,0,0-.05A.08.08,0,0,0,4.26,16.79ZM8,20a0,0,0,0,0,0,0h0a3.8,3.8,0,0,1-1,.15c-.72,0-1.06-.18-1.06-1.24,0-.86.12-1.25,1.06-1.25a2.61,2.61,0,0,1,.84.13s0,0,.06,0q.18-.33.42-.81v-.05a0,0,0,0,0,0,0,5.21,5.21,0,0,0-1.37-.2c-1.49,0-2.16.68-2.16,2.22s.67,2.26,2.16,2.26a5.3,5.3,0,0,0,1.48-.22.06.06,0,0,0,0-.08Zm9.78-3.22h-1s0,0,0,0a23.12,23.12,0,0,1-1,2.79l-1-2.79,0,0H13.59s0,0-.05,0,0,0,0,.05l1.57,4.17c-.16.33-.3.59-.45.84s-.2.37-.3.58a0,0,0,0,0,0,0s0,0,.05,0h1.14s0,0,0,0c.19-.35.43-.85.65-1.37a40.85,40.85,0,0,0,1.61-4.26.06.06,0,0,0,0-.05S17.8,16.79,17.78,16.79Zm3.86,0h-3a.06.06,0,0,0-.06.06v4.09a.06.06,0,0,0,.06.06h1a.06.06,0,0,0,.06-.06V17.78h1.59s0,0,0,0c.13-.28.24-.57.37-.87v-.05S21.65,16.79,21.64,16.79Z"/><path class="cls-2" d="M5.48,10.5c-1.48,0-2.06.62-2.06,2.2S4,14.92,5.48,14.92s2.07-.62,2.07-2.22S7,10.5,5.48,10.5Zm0,3.5c-.68,0-.89-.17-.89-1.29s.23-1.29.89-1.29.9.11.9,1.29S6.17,14,5.48,14Zm6.18-.17a0,0,0,0,0,0,0h-.05a3.78,3.78,0,0,1-1,.16c-.73,0-1.06-.19-1.06-1.25,0-.85.11-1.24,1.06-1.24a2.87,2.87,0,0,1,.83.12s.05,0,.07,0c.11-.22.25-.48.41-.81V10.7a0,0,0,0,0,0,0,5.14,5.14,0,0,0-1.36-.2c-1.5,0-2.17.69-2.17,2.23S9,15,10.46,15a5.23,5.23,0,0,0,1.47-.22.05.05,0,0,0,0-.07ZM3.1,10.61h-3a.06.06,0,0,0-.06.06v4.1a.06.06,0,0,0,.06.06h1s.07,0,.07-.06V11.59H2.73s0,0,0,0c.13-.28.24-.58.37-.87v0S3.12,10.61,3.1,10.61Z"/><path class="cls-3" d="M30.84,20.55v-.06a.41.41,0,0,1,0-.11c0-.57.09-1.27.12-2.08v-.07c0-.54,0-1.13,0-1.74s0-1.2,0-1.74v-.06c0-.8-.07-1.51-.12-2.09a.41.41,0,0,0,0-.11v-.06c0-.06,0-.11,0-.17V12.2c-.05-.61-.08-1-.09-1s0-.13,0-.17v0c0-.11,0-.2-.06-.31a.06.06,0,0,0,0-.05,8.87,8.87,0,0,0-1.9-3.69,7.1,7.1,0,0,0-1.1-1l-1.19-.82c-.82-.55-2-1.31-3.33-2.06A50,50,0,0,0,18.34.59a0,0,0,0,1,0,0,7.17,7.17,0,0,0-2.2-.53,4,4,0,0,0-.49,0,3.46,3.46,0,0,0-.45,0H15a7.81,7.81,0,0,0-2.91.58A50.85,50.85,0,0,0,7.39,3l-.1,0C4.8,4.42,2.86,5.82,2.78,5.88A7.13,7.13,0,0,0,1.12,7.59c-.11.16-.11.56.37.56H2.73c.53,0,.66-.31,1.25-.73A48.83,48.83,0,0,1,8.32,4.65c1.72-1,3.32-1.76,4.11-2.11l.05,0a0,0,0,0,0,0,0h0a0,0,0,0,0,0,0h.05a2.08,2.08,0,0,1,.32-.14,6,6,0,0,1,2.14-.41h.32a5.52,5.52,0,0,1,.71.05,5,5,0,0,1,1.31.31l.12,0,.06,0c.37.15,2.36,1.07,4.53,2.3,1.29.73,2.43,1.46,3.21,2l1.13.78a5.61,5.61,0,0,1,.9.87,6.68,6.68,0,0,1,1.41,3.08s.05.39.1,1a.45.45,0,0,0,0,.12v.1c0,.06,0,.11,0,.17v.06a.22.22,0,0,0,0,.11c0,.08,0,.16,0,.23a.32.32,0,0,0,0,.14v0a1.09,1.09,0,0,0,0,.18v.12c0,.81.08,1.77.08,2.79s0,2-.08,2.78v.12a1.09,1.09,0,0,1,0,.18v0a.36.36,0,0,1,0,.14c0,.08,0,.15,0,.23a.18.18,0,0,1,0,.11v.06c0,.06,0,.11,0,.17v.1a.45.45,0,0,1,0,.12c-.05.64-.1,1-.1,1a6.64,6.64,0,0,1-1.41,3.08,4.86,4.86,0,0,1-.9.87s-.44.31-1.13.78-1.94,1.26-3.21,2c-2.17,1.24-4.18,2.15-4.53,2.3l-.06,0-.12.05a6.36,6.36,0,0,1-2,.36h-.32a5.74,5.74,0,0,1-2.14-.41l-.32-.14s-.05,0-.06,0l0,0s0,0,0,0h0l-.06,0h0a34.07,34.07,0,0,1-4-2A47.27,47.27,0,0,1,4,25.55c-.59-.42-.72-.73-1.25-.73H1.49c-.48,0-.48.4-.37.56a7.13,7.13,0,0,0,1.66,1.71c.08.06,2,1.46,4.51,2.88.13.07.26.15.4.21,2.3,1.28,4.28,2.15,4.39,2.21A7.88,7.88,0,0,0,15,33h.22a3.1,3.1,0,0,0,.43,0,4,4,0,0,0,.49,0,7.32,7.32,0,0,0,2.2-.53h0c.28-.13,2.4-1.08,4.76-2.41,1.33-.77,2.5-1.51,3.32-2.06l1.19-.82a6.73,6.73,0,0,0,1.11-1,8.85,8.85,0,0,0,1.89-3.69.06.06,0,0,1,0-.05c0-.11.05-.22.06-.31V22a.52.52,0,0,0,0-.17s.05-.4.1-1v-.06A.27.27,0,0,0,30.84,20.55Z"/></svg>