<svg id="Layer_1" data-name="Layer 1" xmlns="http://www.w3.org/2000/svg" xmlns:xlink="http://www.w3.org/1999/xlink" viewBox="0 0 237 37.11"><defs><style>.cls-1{fill:none;}.cls-2{clip-path:url(#clip-path);}.cls-3{fill:#fff;}</style><clipPath id="clip-path"><rect class="cls-1" y="0.11" width="237" height="37"/></clipPath></defs><g class="cls-2"><path class="cls-3" d="M154.7,1H135.3a.29.29,0,0,0-.32.32,113.54,113.54,0,0,1-4.52,25.59v.32a.37.37,0,0,0,.32.11h6.68c.11,0,.32-.11.32-.22a100.29,100.29,0,0,0,3.88-20H148V27a.28.28,0,0,0,.32.32h6.36A.29.29,0,0,0,155,27V1.39C155,1.17,154.91,1,154.7,1Zm82,0h-6.36a.28.28,0,0,0-.32.32V21.11a14.36,14.36,0,0,1-4.31.54c-4.2,0-5.17-1.28-5.17-6.83V1.39c0-.22-.11-.32-.33-.32h-6.35c-.22,0-.33.1-.33.32V15.67c0,9,3,12.48,10.89,12.48a39.93,39.93,0,0,0,12.38-2.24c.11,0,.22-.21.22-.32V1.39C237,1.17,236.89,1,236.68,1Zm-134.12.11H96.09c-.21,0-.32.1-.32.21A140.34,140.34,0,0,1,90,18.77L83.49,1.17c0-.1-.22-.21-.33-.21H76.7c-.11,0-.21.11-.32.11a.2.2,0,0,0,0,.32l9.69,26.23c-1,2-1.94,3.73-2.8,5.33-.64,1.17-1.29,2.34-1.94,3.62-.1.11,0,.22,0,.32s.22.22.33.22h7c.11,0,.21-.11.32-.22,1.19-2.24,2.69-5.43,4.1-8.63A264,264,0,0,0,103,1.49a.39.39,0,0,0-.11-.32A.42.42,0,0,0,102.56,1.07Zm23,20.15a.23.23,0,0,0-.22-.21h-.32a23.52,23.52,0,0,1-6.46,1.06c-4.42,0-6.47-1.17-6.47-7.89,0-5.33.65-7.89,6.47-7.89a15.88,15.88,0,0,1,5.17.85c.21,0,.32,0,.43-.21.75-1.39,1.61-3,2.58-5.12V1.49a.23.23,0,0,0-.21-.21A28.3,28.3,0,0,0,118.18,0c-9.27,0-13.36,4.27-13.36,14s4.09,14.18,13.36,14.18a32.33,32.33,0,0,0,9-1.39c.22-.1.22-.21.22-.42ZM185.83,1.07h-6.46c-.11,0-.33.1-.33.21a140.34,140.34,0,0,1-5.82,17.49l-6.46-17.6c0-.1-.22-.21-.32-.21H160c-.1,0-.21.11-.32.11a.2.2,0,0,0,0,.32l9.7,26.23c-1,2-1.94,3.62-2.81,5.33-.64,1.17-1.29,2.34-1.93,3.62-.11.11,0,.22,0,.32s.21.22.32.22h7c.11,0,.22-.11.33-.22,1.18-2.24,2.69-5.43,4.09-8.63a237.8,237.8,0,0,0,9.8-26.77.39.39,0,0,0-.11-.32C186,1.07,185.94,1.07,185.83,1.07ZM209.53,1H190.78a.29.29,0,0,0-.32.32V27a.29.29,0,0,0,.32.32h6.36a.29.29,0,0,0,.32-.32V7.14h9.81c.1,0,.32-.1.32-.21.75-1.71,1.51-3.62,2.26-5.44V1.17C209.74,1.07,209.64,1,209.53,1Z"/><path class="cls-3" d="M33.72,22.29c-4.2,0-5.5-1.18-5.5-8.11,0-7.46,1.41-8.1,5.5-8.1s5.6.64,5.6,8.1C39.32,21.22,37.92,22.29,33.72,22.29Zm0-22.08C24.56.21,21,4.05,21,14.08s3.55,14.07,12.71,14.07,12.82-3.94,12.82-14.07C46.54,4.16,42.88.21,33.72.21Zm38,21a.23.23,0,0,0-.22-.21h-.32a23.53,23.53,0,0,1-6.47,1.06c-4.41,0-6.46-1.17-6.46-7.89,0-5.33.65-7.89,6.46-7.89a16.17,16.17,0,0,1,5.18.85.44.44,0,0,0,.43-.21C71.1,5.55,72,4,72.93,1.81V1.49a.23.23,0,0,0-.21-.21A30.48,30.48,0,0,0,64.42.11c-9.26,0-13.36,4.26-13.36,14s4.1,14.18,13.36,14.18a32.77,32.77,0,0,0,9-1.39c.22-.11.22-.21.22-.43ZM19.07,1H.32C.11,1,0,1.17,0,1.39V27.08a.28.28,0,0,0,.32.32H6.68A.28.28,0,0,0,7,27.08V7.14h9.81c.1,0,.21-.1.32-.21.75-1.7,1.51-3.62,2.26-5.44V1.17C19.28,1.07,19.18,1,19.07,1Z"/></g></svg>