<svg id="Layer_1" data-name="Layer 1" xmlns="http://www.w3.org/2000/svg" xmlns:xlink="http://www.w3.org/1999/xlink" viewBox="0 0 244 38"><defs><style>.cls-1{fill:none;}.cls-2{clip-path:url(#clip-path);}.cls-3{fill:#96d700;}.cls-4{fill:#5f0091;}</style><clipPath id="clip-path"><rect class="cls-1" width="243.84" height="38"/></clipPath></defs><g class="cls-2"><path class="cls-3" d="M28.1,17,37.71.38a.2.2,0,0,0,0-.13.17.17,0,0,0,0-.12.22.22,0,0,0-.09-.1.28.28,0,0,0-.13,0H31.35a3.86,3.86,0,0,0-1.9.51A3.71,3.71,0,0,0,28.06,1.9L17.74,19.78a.3.3,0,0,0,0,.1.43.43,0,0,0,0,.11.24.24,0,0,0,.06.09.47.47,0,0,0,.09.06A19,19,0,0,1,28.65,30a.17.17,0,0,1,0,.12.16.16,0,0,1,0,.12.2.2,0,0,1-.09.09.27.27,0,0,1-.12,0H7.85a.26.26,0,0,1-.17-.07.25.25,0,0,1-.08-.18V7.85a.24.24,0,0,1,.25-.25H18.18a3.83,3.83,0,0,0,3.3-1.9L24.55.38a.28.28,0,0,0,0-.13.24.24,0,0,0,0-.12l-.1-.1a.24.24,0,0,0-.12,0H.26A.32.32,0,0,0,.07.07.32.32,0,0,0,0,.26V37.75a.25.25,0,0,0,.08.18A.27.27,0,0,0,.26,38H37.74a.24.24,0,0,0,.26-.26,26.38,26.38,0,0,0-2.64-11.3,26.55,26.55,0,0,0-7.2-9.09.24.24,0,0,1-.09-.15A.25.25,0,0,1,28.1,17Z"/><path class="cls-4" d="M172.91,20.27a7.11,7.11,0,0,0-6.93-7,11.37,11.37,0,0,0-7.07,2.19.25.25,0,0,0-.1.15.21.21,0,0,0,0,.19l.72,1.24a1,1,0,0,0,.56.44.93.93,0,0,0,.71-.08A9.59,9.59,0,0,1,166,16.15a3.86,3.86,0,0,1,2.62,1.15A3.93,3.93,0,0,1,169.74,20v1a.28.28,0,0,1-.25.25h-6.31a5.45,5.45,0,0,0-5.47,5.29A5.54,5.54,0,0,0,163.09,32a10.46,10.46,0,0,0,6.43-1.82l.1,0h.1l.09.05a.23.23,0,0,1,.07.07l.53.91a1,1,0,0,0,.35.34,1,1,0,0,0,.47.12h1.43a.29.29,0,0,0,.18-.07.26.26,0,0,0,.07-.18Zm-3.84,7.46a8,8,0,0,1-5.22,1.72,3,3,0,0,1-3-2.84,3,3,0,0,1,.22-1.1,2.72,2.72,0,0,1,.62-.92,2.62,2.62,0,0,1,.92-.62,2.76,2.76,0,0,1,1.09-.22h5.76l.09,0,.09.05a.41.41,0,0,1,.05.09.29.29,0,0,1,0,.09v2.42a1.58,1.58,0,0,1-.66,1.31Z"/><path class="cls-4" d="M206.47,20.27a7.1,7.1,0,0,0-6.92-7,11.33,11.33,0,0,0-7.07,2.19.25.25,0,0,0-.1.15.25.25,0,0,0,0,.19l.73,1.24a.92.92,0,0,0,.56.44,1,1,0,0,0,.71-.07,9.56,9.56,0,0,1,5.14-1.29A3.92,3.92,0,0,1,203.3,20v1a.26.26,0,0,1-.07.17.27.27,0,0,1-.18.08h-6.3a5.47,5.47,0,0,0-5.47,5.29A5.54,5.54,0,0,0,196.66,32a10.48,10.48,0,0,0,6.43-1.82l.09,0h.11l.09.05s.05,0,.06.07l.54.91a.88.88,0,0,0,.35.34.94.94,0,0,0,.47.12h1.43a.26.26,0,0,0,.17-.07.25.25,0,0,0,.08-.18Zm-3.83,7.46a8,8,0,0,1-5.22,1.72,3,3,0,0,1-3-2.84,2.77,2.77,0,0,1,.22-1.1,2.84,2.84,0,0,1,.61-.92,2.76,2.76,0,0,1,.93-.62,2.69,2.69,0,0,1,1.09-.22h5.77a.28.28,0,0,1,.25.25v2.42a1.59,1.59,0,0,1-.18.74A1.5,1.5,0,0,1,202.64,27.73Z"/><path class="cls-4" d="M222,14.58V21a.26.26,0,0,1-.07.17.25.25,0,0,1-.18.08h-8.68a.25.25,0,0,1-.18-.08.26.26,0,0,1-.07-.17V13.87a.25.25,0,0,0-.08-.18.23.23,0,0,0-.18-.07H209.9a.23.23,0,0,0-.18.07.25.25,0,0,0-.08.18V31.43a.27.27,0,0,0,.26.26h1.95a.94.94,0,0,0,.36-.08,1,1,0,0,0,.31-.2,1.27,1.27,0,0,0,.2-.31.94.94,0,0,0,.07-.37V24a.29.29,0,0,1,0-.09.24.24,0,0,1,.06-.09l.08-.05.1,0h8.68A.28.28,0,0,1,222,24v7.43a.27.27,0,0,0,.07.18.25.25,0,0,0,.18.08h2.66a.25.25,0,0,0,.18-.08.23.23,0,0,0,.07-.18V13.87a.24.24,0,0,0-.25-.25h-2a1,1,0,0,0-.67.28A1,1,0,0,0,222,14.58Z"/><path class="cls-4" d="M148.59,19.2a.24.24,0,0,1-.08-.09.22.22,0,0,1,0-.22.24.24,0,0,1,.08-.09,9.6,9.6,0,0,0,2.68-3l5.27-9.12a.24.24,0,0,0,0-.12.28.28,0,0,0,0-.13.2.2,0,0,0-.09-.09.31.31,0,0,0-.13,0h-2.49a1.88,1.88,0,0,0-1,.25,1.76,1.76,0,0,0-.69.69l-4.94,8.54A3.22,3.22,0,0,1,146.09,17a3.12,3.12,0,0,1-1.58.43h-2.69a.25.25,0,0,1-.18-.08.23.23,0,0,1-.08-.17V6.59a.16.16,0,0,0,0-.1.22.22,0,0,0,0-.08.16.16,0,0,0-.08-.06l-.1,0h-3a.27.27,0,0,0-.18.08.29.29,0,0,0-.07.18V31.43a.26.26,0,0,0,.25.26h2.28a1,1,0,0,0,.95-1v-9.9a.3.3,0,0,1,0-.1.22.22,0,0,1,0-.08.28.28,0,0,1,.09-.06l.09,0h2.7a3.37,3.37,0,0,1,1.58.43,3.2,3.2,0,0,1,1.15,1.16l4.94,8.55a1.95,1.95,0,0,0,1.65,1h2.48a.2.2,0,0,0,.13,0,.2.2,0,0,0,.09-.09.19.19,0,0,0,0-.12.2.2,0,0,0,0-.13l-5.28-9.12A9.34,9.34,0,0,0,148.59,19.2Z"/><path class="cls-4" d="M186.75,22.58a.24.24,0,0,1-.08-.09.21.21,0,0,1,0-.12.28.28,0,0,1,0-.12l.08-.09a4.2,4.2,0,0,0,1.37-1.56,4.28,4.28,0,0,0,.49-2,5.38,5.38,0,0,0-5.28-5.28,12.05,12.05,0,0,0-7.08,2.09.19.19,0,0,0-.11.15.29.29,0,0,0,0,.18l.68,1.19a1,1,0,0,0,.54.43.92.92,0,0,0,.69-.06,9.31,9.31,0,0,1,4.82-1.18,2.65,2.65,0,0,1,2.6,2.45,2.53,2.53,0,0,1-.71,1.78,2.64,2.64,0,0,1-.81.55,2.45,2.45,0,0,1-1,.19h-2.87a.28.28,0,0,0-.17.07.24.24,0,0,0-.07.18v1.3A.86.86,0,0,0,180,23a1.21,1.21,0,0,0,.2.3.89.89,0,0,0,.31.19.84.84,0,0,0,.35.07H183a2.85,2.85,0,0,1,2.66,1.78,2.6,2.6,0,0,1,.21,1.1,2.9,2.9,0,0,1-2.8,2.74,11.79,11.79,0,0,1-6.12-1.41.28.28,0,0,0-.18,0,.29.29,0,0,0-.15.12l-1.11,1.93a.16.16,0,0,0,0,.09.16.16,0,0,0,0,.1.19.19,0,0,0,0,.09l.08.07A15.22,15.22,0,0,0,183.34,32a5.74,5.74,0,0,0,5.59-5.59,4.36,4.36,0,0,0-.58-2.18A4.46,4.46,0,0,0,186.75,22.58Z"/><path class="cls-4" d="M89,20.27a7.11,7.11,0,0,0-6.93-7A11.37,11.37,0,0,0,75,15.49a.25.25,0,0,0-.1.15.31.31,0,0,0,0,.19l.71,1.25a.9.9,0,0,0,.56.43.92.92,0,0,0,.71-.07,9.62,9.62,0,0,1,5.16-1.29,3.87,3.87,0,0,1,2.62,1.16A3.92,3.92,0,0,1,85.81,20v1a.26.26,0,0,1-.07.17.27.27,0,0,1-.18.08H79.27A5.48,5.48,0,0,0,73.8,26.5,5.55,5.55,0,0,0,79.19,32a10.48,10.48,0,0,0,6.43-1.82l.09,0h.1l.09.05a.23.23,0,0,1,.07.07l.53.91a1,1,0,0,0,.35.34,1,1,0,0,0,.48.12h1.42a.29.29,0,0,0,.18-.07.25.25,0,0,0,.08-.18Zm-3.83,7.46a8,8,0,0,1-5.22,1.72,3,3,0,0,1-3-2.84,2.87,2.87,0,0,1,2.85-2.86h5.77l.09,0a.26.26,0,0,1,.09.05.41.41,0,0,1,0,.09.29.29,0,0,1,0,.09v2.42a1.71,1.71,0,0,1-.17.74A1.79,1.79,0,0,1,85.16,27.73Z"/><path class="cls-4" d="M104.51,14.58V21a.27.27,0,0,1-.08.17.25.25,0,0,1-.18.08H95.57l-.09,0a.24.24,0,0,1-.09-.06.22.22,0,0,1,0-.08.29.29,0,0,1,0-.09V13.87a.24.24,0,0,0-.25-.25H92.41a.24.24,0,0,0-.25.25V31.43a.23.23,0,0,0,.07.18.25.25,0,0,0,.18.08h2a.9.9,0,0,0,.36-.08.79.79,0,0,0,.31-.2,1,1,0,0,0,.21-.31.89.89,0,0,0,.07-.36V24a.26.26,0,0,1,.07-.17.27.27,0,0,1,.18-.08h8.68l.1,0,.08.05a.47.47,0,0,1,.06.09.29.29,0,0,1,0,.09v7.43a.23.23,0,0,0,.07.18.25.25,0,0,0,.18.08h2.66a.26.26,0,0,0,.25-.26V13.87a.29.29,0,0,0-.07-.18.26.26,0,0,0-.18-.07h-2a.89.89,0,0,0-.36.07,1,1,0,0,0-.31.21,1.06,1.06,0,0,0-.21.31A.93.93,0,0,0,104.51,14.58Z"/><path class="cls-4" d="M120.09,22.75a.24.24,0,0,1-.08-.09.2.2,0,0,1,0-.11.25.25,0,0,1,0-.12.34.34,0,0,1,.08-.09,7.86,7.86,0,0,0,2.35-2.55L125.79,14a.31.31,0,0,0,0-.13.28.28,0,0,0,0-.13.28.28,0,0,0-.1-.09.27.27,0,0,0-.12,0h-2.31a1.58,1.58,0,0,0-.79.21,1.61,1.61,0,0,0-.58.58l-3.47,6a1.51,1.51,0,0,1-.57.58,1.6,1.6,0,0,1-.79.22h-2.8a.25.25,0,0,1-.18-.08A.26.26,0,0,1,114,21v-7.1a.25.25,0,0,0-.08-.18.23.23,0,0,0-.18-.07h-2.66a.22.22,0,0,0-.17.07.25.25,0,0,0-.08.18V31.43a.23.23,0,0,0,.08.18.23.23,0,0,0,.17.08h2a1,1,0,0,0,1-1V24a.26.26,0,0,1,.07-.17.25.25,0,0,1,.18-.08h2.61a1.56,1.56,0,0,1,.79.21,1.61,1.61,0,0,1,.58.58l3.64,6.33a1.61,1.61,0,0,0,.58.58,1.57,1.57,0,0,0,.79.22h2.3a.2.2,0,0,0,.13,0,.2.2,0,0,0,.09-.09.19.19,0,0,0,0-.12.28.28,0,0,0,0-.13l-3.53-6.11A7.82,7.82,0,0,0,120.09,22.75Z"/><path class="cls-4" d="M64.26,16.78H57.57a.24.24,0,0,1-.18-.07.29.29,0,0,1-.07-.18V9.75a.26.26,0,0,1,.07-.18.29.29,0,0,1,.18-.07h8.86a2,2,0,0,0,.95-.25,1.85,1.85,0,0,0,.69-.7l1.06-1.82a.2.2,0,0,0,0-.13.22.22,0,0,0,0-.13A.26.26,0,0,0,69,6.38l-.12,0H54.09a.24.24,0,0,0-.25.25V31.43a.23.23,0,0,0,.07.18.25.25,0,0,0,.18.08H64.37a7.58,7.58,0,0,0,2.9-.54,7.44,7.44,0,0,0,2.38-12.27,7.29,7.29,0,0,0-2.48-1.58,7.44,7.44,0,0,0-2.91-.5ZM64,28.5H57.59a.29.29,0,0,1-.18-.07.3.3,0,0,1-.08-.18v-8a.3.3,0,0,1,.08-.18.29.29,0,0,1,.18-.07h6.46a4.33,4.33,0,0,1,3,1.22,4.28,4.28,0,0,1,1.28,3A4.36,4.36,0,0,1,68,25.82a4.23,4.23,0,0,1-1,1.41,4.37,4.37,0,0,1-1.42.95A4.55,4.55,0,0,1,64,28.5Z"/><path class="cls-4" d="M239.28,14.58l-7.55,13.07a.17.17,0,0,1-.06.06h-.09a.15.15,0,0,1-.06,0,.11.11,0,0,1,0-.08V13.87a.24.24,0,0,0-.25-.25h-2.66a.24.24,0,0,0-.18.07.25.25,0,0,0-.08.18V31.43a.27.27,0,0,0,.08.19.29.29,0,0,0,.18.07h2.66a2,2,0,0,0,.95-.25,1.85,1.85,0,0,0,.69-.7l7.56-13.11a.1.1,0,0,1,.06-.05h.08a.18.18,0,0,1,.07.05.19.19,0,0,1,0,.07V31.43a.27.27,0,0,0,.08.19.29.29,0,0,0,.18.07h2.66l.1,0,.08-.05a.41.41,0,0,0,0-.09.16.16,0,0,0,0-.1V13.87a.2.2,0,0,0,0-.1.35.35,0,0,0,0-.08l-.08,0a.18.18,0,0,0-.1,0h-2.66a1.86,1.86,0,0,0-1,.26A1.88,1.88,0,0,0,239.28,14.58Z"/></g></svg>