<svg width="58" height="37" viewBox="0 0 58 37" fill="none" xmlns="http://www.w3.org/2000/svg">
<path d="M56.3008 0H1.69922C0.760797 0 0 0.805704 0 1.79952V35.2005C0 36.1943 0.760797 37 1.69922 37H56.3008C57.2392 37 58 36.1943 58 35.2005V1.79952C58 0.805704 57.2392 0 56.3008 0ZM54.6016 33.401H3.39844V3.59904H54.6016V33.401Z" fill="#94C22B"/>
<path fill-rule="evenodd" clip-rule="evenodd" d="M26.3205 15.4404H9.71094C8.77252 15.4404 8.01172 14.6796 8.01172 13.7412C8.01172 12.8028 8.77252 12.042 9.71094 12.042H26.3205C27.2589 12.042 28.0197 12.8028 28.0197 13.7412C28.0197 14.6796 27.2589 15.4404 26.3205 15.4404ZM30.8294 23.8092H9.71094C8.77252 23.8092 8.01172 23.0484 8.01172 22.11C8.01172 21.1715 8.77252 20.4108 9.71094 20.4108H30.8294C31.7678 20.4108 32.5286 21.1715 32.5286 22.11C32.5286 23.0484 31.7678 23.8092 30.8294 23.8092Z" fill="#94C22B"/>
</svg>
