<svg width="50" height="58" viewBox="0 0 50 58" fill="none" xmlns="http://www.w3.org/2000/svg">
<path d="M48.0719 9.39168L25.8688 0.173193C25.3125 -0.0576743 24.6873 -0.0577876 24.1312 0.173193L1.92812 9.39168C1.08248 9.74285 0.53125 10.5684 0.53125 11.4841V22.6904C0.53125 38.1208 9.85758 52.0008 24.1438 57.832C24.6926 58.0559 25.3073 58.0559 25.8562 57.832C40.1422 52.0009 49.4688 38.1209 49.4688 22.6904V11.4841C49.4688 10.5684 48.9176 9.74285 48.0719 9.39168ZM44.9375 22.6904C44.9375 35.8078 37.2344 47.8833 25 53.2734C13.0926 48.0273 5.0625 36.1633 5.0625 22.6904V12.9966L25 4.71872L44.9375 12.9966V22.6904ZM22.4958 30.3272L32.2339 20.5892C33.1186 19.7045 34.5531 19.7044 35.438 20.5892C36.3228 21.474 36.3227 22.9085 35.4378 23.7932L24.0978 35.1333C23.2129 36.0182 21.7784 36.0179 20.8938 35.1333L14.562 28.8015C13.6772 27.9167 13.6772 26.4822 14.562 25.5975C15.4469 24.7127 16.8814 24.7126 17.7661 25.5975L22.4958 30.3272Z" fill="#94C22B"/>
</svg>
