<svg id="Layer_1" data-name="Layer 1" xmlns="http://www.w3.org/2000/svg" viewBox="0 0 44 49.92"><defs><style>.cls-1{fill:#94c22b;}</style></defs><path class="cls-1" d="M37.78,1.11l-.1-.05a2.3,2.3,0,0,0-.81-.2h-.13L15.63,0A2.17,2.17,0,0,0,14.1.56,2.14,2.14,0,0,0,13.42,2,2.17,2.17,0,0,0,14,3.57a2.12,2.12,0,0,0,1.48.68l16.06.66L6,28.1a2.09,2.09,0,0,0-.69,1.48,2.12,2.12,0,0,0,2,2.21,2.09,2.09,0,0,0,1.53-.56L34.46,8,33.8,24.15a2.13,2.13,0,0,0,4.25.18l.87-21.25a2.13,2.13,0,0,0-.57-1.53A2,2,0,0,0,37.78,1.11Z"/><path class="cls-1" d="M42,45.92H2a2,2,0,0,0,0,4H42a2,2,0,0,0,0-4Z"/></svg>