<svg width="58" height="58" viewBox="0 0 58 58" fill="none" xmlns="http://www.w3.org/2000/svg">
<path d="M52.4492 2.13467C49.3203 0.758078 45.2168 0 40.8945 0C32.0493 0 23.9023 3.24789 23.9023 8.49609C23.9023 9.80914 23.9023 20.0184 23.9023 21.2453C22.2268 20.7574 20.4768 20.5039 18.6914 20.5039C13.7102 20.5039 9.01651 22.4723 5.47488 26.0465C1.94436 29.6096 0 34.3195 0 39.3086C0 49.615 8.38496 58 18.6914 58C22.1307 58 25.4373 57.0757 28.327 55.3449C31.4874 57.0404 35.9909 58 40.8945 58C45.2168 58 49.3203 57.2419 52.4492 55.8653C56.0287 54.2906 58 52.0313 58 49.5039C58 48.4456 58 9.57634 58 8.49609C58 5.96856 56.0287 3.70939 52.4492 2.13467ZM18.6914 54.6016C10.2589 54.6016 3.39844 47.7411 3.39844 39.3086C3.39844 30.8135 10.2589 23.9023 18.6914 23.9023C27.1864 23.9023 34.0977 30.8135 34.0977 39.3086C34.0977 47.7411 27.1864 54.6016 18.6914 54.6016ZM54.6016 49.5039C54.6016 51.5824 49.2618 54.6016 40.8945 54.6016C37.335 54.6016 33.9724 54.0311 31.4208 53.0315C31.6008 52.8661 31.7789 52.6981 31.9536 52.5251C33.4837 51.009 34.7183 49.2813 35.6315 47.4107C37.3197 47.671 39.0833 47.8047 40.8945 47.8047C45.3627 47.8047 50.9036 46.9362 54.6016 44.5174V49.5039ZM54.6016 39.3086C54.6016 41.3871 49.2618 44.4062 40.8945 44.4062C39.5083 44.4062 38.157 44.3196 36.8548 44.1518C37.277 42.5904 37.4961 40.9656 37.4961 39.3086C37.4961 38.6415 37.4597 37.9795 37.3902 37.3242C38.5348 37.4375 39.7062 37.4961 40.8945 37.4961C45.363 37.4961 50.9035 36.6275 54.6016 34.2088V39.3086ZM54.6016 29C54.6016 31.0785 49.2618 34.0977 40.8945 34.0977C39.4482 34.0977 38.033 34.0031 36.6721 33.8192C35.7902 30.9586 34.2168 28.3256 32.037 26.1208C34.6641 26.888 37.7156 27.3008 40.8945 27.3008C45.363 27.3008 50.9035 26.4321 54.6016 24.0135V29ZM54.6016 18.8047C54.6016 20.8832 49.2618 23.9023 40.8945 23.9023C37.0422 23.9023 33.4469 23.2474 30.7709 22.058C28.6304 21.1068 27.3008 19.8601 27.3008 18.8047V13.7291C30.9795 16.1404 36.4734 16.9922 40.8945 16.9922C45.363 16.9922 50.9035 16.1235 54.6016 13.7049V18.8047ZM40.8945 13.5938C32.5937 13.5938 27.3008 10.6196 27.3008 8.49609C27.3008 6.36607 32.6088 3.39844 40.8945 3.39844C49.2618 3.39844 54.6016 6.41761 54.6016 8.49609C54.6016 10.5746 49.2618 13.5938 40.8945 13.5938Z" fill="#6C2F7C"/>
<path d="M14.6281 48.1394V45.6187H12.7656V43.3336H14.6281V41.4962H12.7656V38.575H14.6281V31.3193H19.9362C22.078 31.3193 23.6378 31.7591 24.6156 32.6386C25.609 33.518 26.1056 34.7273 26.1056 36.2664C26.1056 37.1773 25.9039 38.0332 25.5003 38.8342C25.0968 39.6351 24.4216 40.279 23.4749 40.7659C22.5436 41.2527 21.2709 41.4962 19.6568 41.4962H18.1435V43.3336H21.7288V45.6187H18.1435V48.1394H14.6281ZM18.1435 38.575H19.3076C20.3009 38.575 21.0847 38.4023 21.659 38.0568C22.2487 37.7113 22.5436 37.1537 22.5436 36.3842C22.5436 34.955 21.6124 34.2405 19.7499 34.2405H18.1435V38.575Z" fill="#6C2F7C"/>
</svg>
