<svg id="Layer_1" data-name="Layer 1" xmlns="http://www.w3.org/2000/svg" xmlns:xlink="http://www.w3.org/1999/xlink" viewBox="0 0 49 59"><defs><style>.cls-1{fill:none;}.cls-2{clip-path:url(#clip-path);}.cls-3,.cls-4{fill:#6c2f7c;}.cls-3{fill-rule:evenodd;}</style><clipPath id="clip-path"><rect class="cls-1" x="3" width="46" height="46"/></clipPath></defs><g class="cls-2"><path class="cls-3" d="M38.35,10.63a2.13,2.13,0,0,1,.57,1.53l-.87,21.25a2.13,2.13,0,0,1-4.25-.18l.66-16.16L8.9,40.31a2.09,2.09,0,0,1-1.53.56A2.12,2.12,0,0,1,6,37.18L31.52,14l-16.06-.66A2.12,2.12,0,0,1,14,12.65a2.17,2.17,0,0,1-.56-1.53,2.14,2.14,0,0,1,.68-1.48,2.17,2.17,0,0,1,1.53-.56l21.12.86h.12a2.14,2.14,0,0,1,1.23.46A1.84,1.84,0,0,1,38.35,10.63Z"/></g><path class="cls-4" d="M2,55H42a2,2,0,0,1,2,2h0a2,2,0,0,1-2,2H2a2,2,0,0,1-2-2H0A2,2,0,0,1,2,55Z"/></svg>