<svg id="Layer_1" data-name="Layer 1" xmlns="http://www.w3.org/2000/svg" viewBox="0 0 58 37"><defs><style>.cls-1,.cls-2{fill:#6c2f7c;}.cls-2{fill-rule:evenodd;}</style></defs><path class="cls-1" d="M56.3,0H1.7A1.75,1.75,0,0,0,0,1.8V35.2A1.75,1.75,0,0,0,1.7,37H56.3A1.75,1.75,0,0,0,58,35.2V1.8A1.75,1.75,0,0,0,56.3,0ZM54.6,33.4H3.4V3.6H54.6Z"/><path class="cls-2" d="M26.32,15.44H9.71a1.7,1.7,0,0,1,0-3.4H26.32a1.7,1.7,0,0,1,0,3.4Zm4.51,8.37H9.71a1.7,1.7,0,0,1,0-3.4H30.83a1.7,1.7,0,1,1,0,3.4Z"/><path class="cls-1" d="M45,22.11a1.08,1.08,0,0,1-1.08,1.08H42.18v.39a1.33,1.33,0,0,1-2.66,0v-.39H38.8a1.08,1.08,0,1,1,0-2.16h.72V19.45H38.8a1.08,1.08,0,1,1,0-2.15h.72V15.09a4,4,0,0,1,4-4h1a5.84,5.84,0,0,1,2.55.52,4,4,0,0,1,1.7,1.5,4,4,0,0,1,.61,2.21,3.77,3.77,0,0,1-1.3,3,5.4,5.4,0,0,1-3.6,1.1H42.18V21h1.73A1.08,1.08,0,0,1,45,22.11ZM42.18,17.3h2.29c1.49,0,2.23-.65,2.23-2a2,2,0,0,0-.57-1.5,2.14,2.14,0,0,0-1.56-.59,2.39,2.39,0,0,0-2.39,2.39Z"/></svg>