<svg width="52" height="58" viewBox="0 0 52 58" fill="none" xmlns="http://www.w3.org/2000/svg">
<path d="M51.5316 55.2939L46.7964 48.856V21.4164H49.0299C49.9683 21.4164 50.7291 20.6556 50.7291 19.7171V12.8301C50.7291 11.8917 49.9683 11.1309 49.0299 11.1309H45.5548L26.7843 0.229819C26.2566 -0.0766065 25.6052 -0.0766065 25.0776 0.229819L6.30698 11.1309H2.83196C1.89354 11.1309 1.13274 11.8917 1.13274 12.8301V19.7171C1.13274 20.6556 1.89354 21.4164 2.83196 21.4164H5.06542V48.856L0.330373 55.2939C-0.0493458 55.8102 -0.106213 56.496 0.182994 57.0678C0.472201 57.6397 1.05832 58 1.69915 58H50.1628C50.8035 58 51.3899 57.6395 51.6791 57.0678C51.9683 56.4961 51.9113 55.8102 51.5316 55.2939ZM43.398 47.7145H39.9094V21.4164H43.398V47.7145ZM15.3509 47.7145V21.4164H36.511V47.7144H15.3509V47.7145ZM25.9309 3.66417L38.7879 11.1309H13.074L25.9309 3.66417ZM4.53118 14.5293H47.3308V18.0179H4.53118V14.5293ZM11.9525 21.4164V47.7144H8.46386V21.4164H11.9525ZM5.05817 54.6016L7.6241 51.1129H44.2376L46.8037 54.6016H5.05817Z" fill="#6C2F7C"/>
<path d="M22.2573 41.7608V39.5878H20.7188V37.6179H22.2573V36.0339H20.7188V33.5157H22.2573V27.2607H26.6422C28.4116 27.2607 29.7001 27.6398 30.5079 28.398C31.3285 29.1562 31.7387 30.1987 31.7387 31.5255C31.7387 32.3107 31.5721 33.0486 31.2387 33.739C30.9054 34.4295 30.3476 34.9846 29.5655 35.4043C28.7962 35.824 27.7449 36.0339 26.4115 36.0339H25.1614V37.6179H28.1231V39.5878H25.1614V41.7608H22.2573ZM25.1614 33.5157H26.123C26.9435 33.5157 27.591 33.3667 28.0654 33.0689C28.5526 32.771 28.7962 32.2904 28.7962 31.627C28.7962 30.395 28.0269 29.779 26.4884 29.779H25.1614V33.5157Z" fill="#6C2F7C"/>
</svg>
