<svg id="Layer_1" data-name="Layer 1" xmlns="http://www.w3.org/2000/svg" viewBox="0 0 58 58"><defs><style>.cls-1{fill:#6c2f7c;fill-rule:evenodd;}</style></defs><path class="cls-1" d="M0,55.36V2.64A2.53,2.53,0,0,1,2.42,0,2.53,2.53,0,0,1,4.83,2.64V53.17H55.36a2.42,2.42,0,1,1,0,4.83H2.42a2.31,2.31,0,0,1-1.69-.75A2.31,2.31,0,0,1,0,55.58v-.22ZM57.25,9.71V9.59h0a.41.41,0,0,1,0-.11s0-.07,0-.11v0s0-.06,0-.1l0-.1,0-.11,0-.08V8.91h0l0-.08a.36.36,0,0,0,0-.09v0h0a.2.2,0,0,0,0-.08.41.41,0,0,0-.05-.09h0v0l0-.07-.07-.09h0l-.07-.09-.07-.07h0l-.09-.09h0v0h0l0,0-.09-.08-.09-.06-.1-.07-.09-.06-.1,0-.1-.05-.1,0-.11,0-.11,0a.35.35,0,0,0-.11,0l-.1,0H45.76a2.32,2.32,0,0,0,0,4.64H49.7l-14,15.22-6-6a2.28,2.28,0,0,0-3.31.06L7.3,42.2a2.34,2.34,0,0,0,.13,3.28A2.24,2.24,0,0,0,9,46.1a2.31,2.31,0,0,0,1.69-.74l17.53-19.1,6,6a2.28,2.28,0,0,0,3.31-.06L52.66,15.68V19a2.3,2.3,0,1,0,4.6,0V9.74h0Z"/></svg>