<svg id="Layer_1" data-name="Layer 1" xmlns="http://www.w3.org/2000/svg" viewBox="0 0 58 57.99"><defs><style>.cls-1{fill:none;}.cls-2{fill:#6c2f7c;}</style></defs><path class="cls-1" d="M24.91,31.11a17.44,17.44,0,0,1,1.36-1.95A13.78,13.78,0,0,0,18,26.27,14.14,14.14,0,0,0,24.91,31.11Z"/><path class="cls-1" d="M40,26.27a13.75,13.75,0,0,0-8.3,2.89,18.29,18.29,0,0,1,1.36,1.94A14,14,0,0,0,40,26.27Z"/><path class="cls-1" d="M26.26,51.23a17.8,17.8,0,0,1-3-16.58,17.93,17.93,0,0,1-9.59-7.75A13.91,13.91,0,1,0,26.26,51.23Z"/><path class="cls-1" d="M45.93,52.9a13.92,13.92,0,0,0-1.64-26,18,18,0,0,1-9.59,7.75,17.78,17.78,0,0,1-3,16.58A13.94,13.94,0,0,0,45.93,52.9Z"/><path class="cls-1" d="M29,3.89A13.92,13.92,0,0,0,15.89,22.52a17.62,17.62,0,0,1,2.05-.12,17.29,17.29,0,0,1,11.06,4,17.33,17.33,0,0,1,13.11-3.87A13.92,13.92,0,0,0,29,3.89Z"/><path class="cls-1" d="M30.91,35.49a16.27,16.27,0,0,1-3.82,0,13.46,13.46,0,0,0-.82,4.71h0A13.82,13.82,0,0,0,29,48.45,14,14,0,0,0,30.91,35.49Z"/><path class="cls-2" d="M57.9,38.37a17.89,17.89,0,0,0-12-15,17.8,17.8,0,1,0-33.8,0A17.78,17.78,0,0,0,17.79,58h0A17.68,17.68,0,0,0,29,54,17.78,17.78,0,0,0,57.9,38.37ZM4,38.54A14,14,0,0,1,13.71,26.9a17.93,17.93,0,0,0,9.59,7.75,17.8,17.8,0,0,0,3,16.58A13.91,13.91,0,0,1,4,38.54ZM40,26.27a14,14,0,0,1-6.94,4.83,18.29,18.29,0,0,0-1.36-1.94A13.75,13.75,0,0,1,40,26.27ZM26.27,29.16a17.44,17.44,0,0,0-1.36,1.95A14.14,14.14,0,0,1,18,26.27,13.78,13.78,0,0,1,26.27,29.16Zm15.84-6.64A17.33,17.33,0,0,0,29,26.39a17.29,17.29,0,0,0-11.06-4,17.62,17.62,0,0,0-2.05.12,13.93,13.93,0,1,1,26.22,0ZM26.27,40.2a13.46,13.46,0,0,1,.82-4.71,16.27,16.27,0,0,0,3.82,0,14,14,0,0,1-1.91,13,13.82,13.82,0,0,1-2.73-8.25Zm8.43-5.55a18,18,0,0,0,9.59-7.75A13.92,13.92,0,1,1,31.73,51.23,17.78,17.78,0,0,0,34.7,34.65Z"/></svg>