<svg id="Layer_1" data-name="Layer 1" xmlns="http://www.w3.org/2000/svg" viewBox="0 0 42 54"><defs><style>.cls-1{fill:#94c22b;}</style></defs><path class="cls-1" d="M39.75,11.21,29.58,1.59A5.75,5.75,0,0,0,25.6,0H6.23A5.81,5.81,0,0,0,.43,5.8V48.2A5.81,5.81,0,0,0,6.23,54H35.77a5.81,5.81,0,0,0,5.8-5.8V15.42A5.79,5.79,0,0,0,39.75,11.21Zm-3.07,1.45H28.8a.52.52,0,0,1-.52-.53V4.71Zm-.91,38.18H6.23A2.64,2.64,0,0,1,3.6,48.2V5.8A2.64,2.64,0,0,1,6.23,3.16H25.11v9a3.7,3.7,0,0,0,3.69,3.69h9.6V48.2A2.64,2.64,0,0,1,35.77,50.84Z"/><path class="cls-1" d="M32.29,21.09H9.08a1.59,1.59,0,0,0,0,3.17H32.29a1.59,1.59,0,0,0,0-3.17Z"/><path class="cls-1" d="M32.29,29.53H9.08a1.59,1.59,0,0,0,0,3.17H32.29a1.59,1.59,0,0,0,0-3.17Z"/><path class="cls-1" d="M16.75,38H9.08a1.58,1.58,0,1,0,0,3.16h7.67a1.58,1.58,0,0,0,0-3.16Z"/></svg>