<svg width="60" height="61" viewBox="0 0 60 61" fill="none" xmlns="http://www.w3.org/2000/svg">
<g clip-path="url(#clip0)">
<path d="M55.1536 9.02251C52.0118 5.88069 47.8524 4.1635 43.4131 4.1635C38.9739 4.1635 34.8018 5.8934 31.6599 9.03523L30.0191 10.6761L28.3528 9.00979C25.2109 5.86797 21.0261 4.12534 16.5868 4.12534C12.1603 4.12534 7.98818 5.85524 4.85908 8.98435C1.71726 12.1262 -0.0126503 16.2983 6.96507e-05 20.7376C6.96507e-05 25.1768 1.7427 29.3362 4.88452 32.478L28.7725 56.3661C29.1032 56.6968 29.5484 56.8749 29.9809 56.8749C30.4134 56.8749 30.8586 56.7095 31.1893 56.3788L55.1282 32.5289C58.27 29.3871 59.9999 25.215 59.9999 20.7757C60.0126 16.3365 58.2955 12.1643 55.1536 9.02251ZM52.7114 30.0994L29.9809 52.7409L7.3013 30.0613C4.8082 27.5682 3.43445 24.261 3.43445 20.7376C3.43445 17.2141 4.79548 13.907 7.28858 11.4266C9.76897 8.94619 13.0761 7.57244 16.5868 7.57244C20.1103 7.57244 23.4302 8.94619 25.9233 11.4393L28.798 14.314C29.4721 14.9882 30.5533 14.9882 31.2275 14.314L34.0767 11.4647C36.5698 8.97163 39.8897 7.59787 43.4004 7.59787C46.9111 7.59787 50.2183 8.97163 52.7114 11.452C55.2045 13.9451 56.5655 17.2523 56.5655 20.7757C56.5783 24.2991 55.2045 27.6063 52.7114 30.0994Z" fill="url(#paint0_linear)"/>
</g>
<defs>
<linearGradient id="paint0_linear" x1="30" y1="4.12534" x2="30" y2="56.8749" gradientUnits="userSpaceOnUse">
<stop stop-color="#8FC418"/>
<stop offset="1" stop-color="#DBFC8F"/>
</linearGradient>
<clipPath id="clip0">
<rect width="60" height="60" fill="white" transform="translate(0 0.5)"/>
</clipPath>
</defs>
</svg>
