<svg id="Layer_1" data-name="Layer 1" xmlns="http://www.w3.org/2000/svg" viewBox="0 0 54 48.51"><defs><style>.cls-1{fill:#94c22b;}</style></defs><path class="cls-1" d="M47.34,0H6.66A6.66,6.66,0,0,0,0,6.66v25.8a6.66,6.66,0,0,0,6.66,6.66H25.49v6.36H16.1a1.52,1.52,0,0,0,0,3H37.9a1.52,1.52,0,0,0,0-3H28.51V39.12H47.34A6.66,6.66,0,0,0,54,32.46V6.66A6.66,6.66,0,0,0,47.34,0ZM6.66,3H47.35A3.63,3.63,0,0,1,51,6.66V28.22H3V6.66A3.62,3.62,0,0,1,6.66,3ZM47.34,36.09H6.66A3.63,3.63,0,0,1,3,32.46V31.25H51v1.21A3.63,3.63,0,0,1,47.34,36.09Z"/></svg>