<svg width="58" height="56" viewBox="0 0 58 56" fill="none" xmlns="http://www.w3.org/2000/svg">
<path d="M2 23.8156V53.9023" stroke="url(#paint0_linear)" stroke-width="4" stroke-linecap="round" stroke-linejoin="round"/>
<path fill-rule="evenodd" clip-rule="evenodd" d="M23.964 0.415039C21.4317 0.415039 19.1869 1.93442 18.2475 4.28453L12.2686 19.231C12.1115 19.6254 12.0296 20.0483 12.0296 20.4729V50.5596C12.0296 52.4066 13.5256 53.9026 15.3726 53.9026H40.7976C44.2074 53.9026 47.064 51.3469 47.4417 47.9571L49.3873 30.5018H50.4738C52.269 30.5018 53.9438 29.8048 55.1941 28.5361C56.5965 27.1538 57.3035 25.2249 57.1347 23.2375C56.8438 19.8126 53.8368 17.1299 50.2866 17.1299H29.0955L30.09 7.18456C30.2622 5.45624 29.6939 3.72793 28.5288 2.44088C27.3638 1.15384 25.699 0.415039 23.964 0.415039ZM23.964 3.75801C25.6288 3.75801 26.9292 5.19549 26.7638 6.85193L25.4015 20.4729H50.2866C52.0534 20.4729 53.6546 21.7599 53.8034 23.52C53.892 24.5547 53.5142 25.5074 52.8306 26.1727C52.2289 26.7911 51.3931 27.1588 50.4738 27.1588H46.3954L44.1188 47.5861C43.9299 49.2793 42.4991 50.5596 40.7976 50.5596H15.3726V20.4729L21.3515 5.52645C21.7777 4.45837 22.8124 3.75801 23.964 3.75801Z" fill="url(#paint1_linear)"/>
<defs>
<linearGradient id="paint0_linear" x1="2.5" y1="23.8156" x2="2.5" y2="53.9023" gradientUnits="userSpaceOnUse">
<stop stop-color="#92C61C"/>
<stop offset="1" stop-color="#C8ED73"/>
</linearGradient>
<linearGradient id="paint1_linear" x1="34.5944" y1="0.415039" x2="34.5944" y2="53.9026" gradientUnits="userSpaceOnUse">
<stop stop-color="#94C22B"/>
<stop offset="1" stop-color="#C5EB6F"/>
</linearGradient>
</defs>
</svg>
