<svg width="60" height="61" viewBox="0 0 60 61" fill="none" xmlns="http://www.w3.org/2000/svg">
<g clip-path="url(#clip0)">
<path d="M53.8675 10.2154L30.8987 0.679073C30.3233 0.440245 29.6766 0.440128 29.1013 0.679073L6.13254 10.2154C5.25773 10.5787 4.6875 11.4328 4.6875 12.38V23.9728C4.6875 39.9352 14.3354 54.2939 29.1143 60.3261C29.682 60.5578 30.3179 60.5578 30.8857 60.3261C45.6643 54.294 55.3125 39.9354 55.3125 23.9728V12.38C55.3125 11.4328 54.7424 10.5787 53.8675 10.2154ZM50.625 23.9728C50.625 37.5425 42.6562 50.0343 30 55.6104C17.682 50.1833 9.375 37.9102 9.375 23.9728V13.9447L30 5.38134L50.625 13.9447V23.9728ZM27.4095 31.8729L37.4834 21.7991C38.3986 20.8838 39.8825 20.8837 40.7979 21.7991C41.7132 22.7144 41.7131 24.1984 40.7978 25.1136L29.0667 36.8447C28.1512 37.7601 26.6673 37.7598 25.7522 36.8447L19.2021 30.2946C18.2868 29.3792 18.2868 27.8953 19.2021 26.9801C20.1175 26.0648 21.6014 26.0647 22.5166 26.9801L27.4095 31.8729Z" fill="url(#paint0_linear)"/>
</g>
<defs>
<linearGradient id="paint0_linear" x1="30" y1="0.499908" x2="30" y2="60.4999" gradientUnits="userSpaceOnUse">
<stop stop-color="#8FC418"/>
<stop offset="1" stop-color="#DBFC8F"/>
</linearGradient>
<clipPath id="clip0">
<rect width="60" height="60" fill="white" transform="translate(0 0.5)"/>
</clipPath>
</defs>
</svg>
