<svg id="Layer_1" data-name="Layer 1" xmlns="http://www.w3.org/2000/svg" xmlns:xlink="http://www.w3.org/1999/xlink" viewBox="0 0 46.49 60.11"><defs><linearGradient id="linear-gradient" x1="23.25" y1="61.12" x2="23.25" y2="1" gradientTransform="matrix(1, 0, 0, -1, 0, 61.12)" gradientUnits="userSpaceOnUse"><stop offset="0" stop-color="#8fc418"/><stop offset="1" stop-color="#c9ee73"/></linearGradient><linearGradient id="linear-gradient-2" x1="24.78" y1="24.38" x2="24.78" y2="2.67" gradientTransform="matrix(1, 0, 0, -1, 0, 61.12)" gradientUnits="userSpaceOnUse"><stop offset="0" stop-color="#8fc418"/><stop offset="1" stop-color="#dbfc8f"/></linearGradient></defs><title>Artboard 1</title><path d="M18,0a3.34,3.34,0,0,0-3.32,3.76c.61,4.81-.45,11.55-5.24,16l-.1.1C6.31,22.66,0,28.52,0,37.91c0,12.87,9.72,22.2,23.12,22.2,16.06,0,23.37-12.11,23.37-23.37,0-8.29-3.25-15.15-6.28-18a3.34,3.34,0,0,0-2.3-.92,3.19,3.19,0,0,0-1.17.22,3.16,3.16,0,0,0-1.18.76A31,31,0,0,0,19.5.35,3.43,3.43,0,0,0,18,0Zm0,3.34c9.23,4.6,17,13.83,15.71,30.38a25.21,25.21,0,0,0,4.19-12.57c2.5,2.37,5.24,8.47,5.24,15.59,0,10.46-6.61,20-20,20-10.6,0-19.78-6.92-19.78-18.86,0-8,5.59-13.12,8.38-15.71C17.44,16.89,18.71,9,18,3.34Z" fill-rule="evenodd" fill="url(#linear-gradient)"/><path d="M23.11,36.74c-1.82,2.12-3.33,6.46-3.33,10s2,9.89,5,11.69h5C24.1,53.48,23.11,45.08,23.11,36.74Z" fill-rule="evenodd" fill="url(#linear-gradient-2)"/></svg>