<svg width="60" height="60" viewBox="0 0 60 60" fill="none" xmlns="http://www.w3.org/2000/svg">
<g clip-path="url(#clip0)">
<path d="M34.6421 48.0118H29.8114C28.8901 48.0118 28.146 48.7559 28.146 49.6772C28.146 50.5985 28.8901 51.3426 29.8114 51.3426H34.6421C35.5633 51.3426 36.3074 50.5985 36.3074 49.6772C36.3074 48.7559 35.5633 48.0118 34.6421 48.0118Z" fill="#6C2F7C"/>
<path d="M58.5128 17.1969L42.8041 1.48819C40.8199 -0.496063 37.5955 -0.496063 35.6112 1.48819L9.48523 27.6378H5.07972C2.2805 27.6378 0.000976562 29.9173 0.000976562 32.7165V54.9213C0.000976562 57.7205 2.2805 60 5.07972 60H41.0325C43.8317 60 46.1112 57.7205 46.1112 54.9213V36.7795L58.501 24.3898C60.497 22.4055 60.497 19.1811 58.5128 17.1969ZM37.9734 3.85039C38.6585 3.16535 39.7687 3.16535 40.4537 3.85039L43.1703 6.56693L22.1112 27.6378H14.186L37.9734 3.85039ZM3.33169 32.7165C3.33169 31.748 4.11121 30.9685 5.07972 30.9685H41.0325C42.001 30.9685 42.7805 31.748 42.7805 32.7165V36.5669H3.33169V32.7165ZM42.7923 54.9331C42.7923 55.9016 42.0128 56.6811 41.0443 56.6811H5.07972C4.11121 56.6811 3.33169 55.9016 3.33169 54.9331V39.8976H42.7923V54.9331ZM56.1624 22.0394L46.0876 32.1142C45.7805 29.5984 43.6427 27.6378 41.0443 27.6378H26.8356L45.5325 8.92913L56.1624 19.5591C56.8356 20.2441 56.8356 21.3543 56.1624 22.0394Z" fill="#6C2F7C"/>
</g>
<defs>
<clipPath id="clip0">
<rect width="60" height="60" fill="white"/>
</clipPath>
</defs>
</svg>
