<svg width="52" height="49" viewBox="0 0 52 49" fill="none" xmlns="http://www.w3.org/2000/svg">
<path fill-rule="evenodd" clip-rule="evenodd" d="M26 0C11.6643 0 0 10.9907 0 24.5C0 38.0093 11.6643 49 26 49C30.5012 49 34.8871 47.9089 38.7774 45.8313L47.7214 48.8318C48.0578 48.9445 48.4055 49 48.75 49C49.5983 49 50.4286 48.6652 51.0478 48.0429C51.9188 47.1674 52.2226 45.8738 51.8326 44.6994L48.9482 36.015C50.9486 32.4772 52 28.5278 52 24.5C52 10.9907 40.3358 0 26 0ZM26 3.26667C38.5612 3.26667 48.75 12.7727 48.75 24.5C48.75 28.567 47.515 32.3727 45.3862 35.6067L48.75 45.7333L38.4312 42.2707C34.8562 44.4593 30.5825 45.7333 26 45.7333C13.4388 45.7333 3.25 36.2273 3.25 24.5C3.25 12.7727 13.4388 3.26667 26 3.26667Z" fill="#6C2F7C"/>
</svg>
